<?xml version="1.0" standalone="no"?>
<!DOCTYPE svg PUBLIC "-//W3C//DTD SVG 1.1//EN" "http://www.w3.org/Graphics/SVG/1.1/DTD/svg11.dtd" >
<svg xmlns="http://www.w3.org/2000/svg">
<metadata></metadata>
<defs>
<font id="tstarregular" horiz-adv-x="1105" >
<font-face units-per-em="2048" ascent="1585" descent="-463" />
<missing-glyph horiz-adv-x="450" />
<glyph horiz-adv-x="0" />
<glyph horiz-adv-x="682" />
<glyph unicode=" "  horiz-adv-x="450" />
<glyph unicode="&#x09;" horiz-adv-x="450" />
<glyph unicode="&#xa0;" horiz-adv-x="450" />
<glyph unicode="!" horiz-adv-x="512" d="M170 0v170h170v-170h-170zM201 424v1032h112v-1032h-112z" />
<glyph unicode="&#x22;" horiz-adv-x="706" d="M170 1157v301h111v-301h-111zM424 1157v301h111v-301h-111z" />
<glyph unicode="#" horiz-adv-x="1380" d="M170 487v95h215l53 331h-200v93h215l65 407h103l-66 -407h332l67 407h101l-70 -407h223v-93h-235l-55 -331h223v-95h-238l-69 -444h-99l68 444h-332l-72 -444h-100l72 444h-201zM485 582h332l53 331h-329z" />
<glyph unicode="$" horiz-adv-x="1067" d="M111 360h112q0 -125 83.5 -197.5t215.5 -72.5q145 0 232.5 77t87.5 198q0 91 -41 151.5t-119 104.5q-71 40 -191 102.5t-165 87.5q-86 46 -138.5 127.5t-52.5 181.5q0 139 91 236.5t239 116.5v137h108v-135q160 -15 259.5 -118t99.5 -255h-113q0 127 -81 195.5t-212 68.5 q-122 0 -200 -66.5t-78 -185.5q0 -142 147 -217q248 -126 338 -176q107 -59 164 -151.5t57 -209.5q0 -152 -109 -257t-272 -119v-129h-108v129q-162 17 -258 121.5t-96 254.5z" />
<glyph unicode="%" horiz-adv-x="1652" d="M170 971v219q0 115 70.5 184.5t187.5 69.5q120 0 190 -68.5t70 -185.5v-219q0 -116 -71 -185t-189 -69q-119 0 -188.5 68t-69.5 186zM274 971q0 -150 154 -150q75 0 115.5 39t40.5 111v219q0 149 -156 149q-74 0 -114 -38.5t-40 -110.5v-219zM514 0l477 1462h113 l-473 -1462h-117zM963 272v220q0 115 70.5 184t187.5 69q120 0 190 -67.5t70 -185.5v-220q0 -116 -71 -185t-189 -69q-119 0 -188.5 68.5t-69.5 185.5zM1067 272q0 -149 154 -149q75 0 115 38.5t40 110.5v220q0 149 -155 149q-74 0 -114 -38.5t-40 -110.5v-220z" />
<glyph unicode="&#x26;" horiz-adv-x="1318" d="M150 389q0 117 57 211t162 156l61 35l-80 69q-71 61 -102 125t-31 148q0 73 24 132t62.5 97.5t88.5 64.5t100 37t100 11q169 0 284 -99.5t115 -259.5h-112q0 114 -80 181t-207 67q-262 0 -262 -236q0 -54 15.5 -93t35 -59t63.5 -58l705 -594l-68 -88l-90 75 q-13 -88 -55 -154t-102 -103t-125.5 -54.5t-135.5 -17.5q-61 0 -119 13t-114 43.5t-97.5 76t-67 116t-25.5 158.5zM262 387q0 -68 19.5 -121t50 -85t72.5 -53t83 -28.5t86 -7.5t86 7.5t83.5 28.5t73 53t50 85t19.5 121v14l-371 316q-60 -31 -92 -51q-77 -45 -118.5 -118 t-41.5 -161z" />
<glyph unicode="'" horiz-adv-x="454" d="M170 1159v299h113v-299h-113z" />
<glyph unicode="(" horiz-adv-x="579" d="M170 160v1126q0 117 39 187q17 30 39 57.5t37.5 44t50.5 49.5l72 -80q-3 -3 -18 -17.5t-19.5 -19.5t-16 -17.5t-17 -20t-13 -19.5t-13.5 -23q-28 -55 -28 -153v-1102q0 -99 28 -154q7 -13 14.5 -25.5t20 -26t18 -20t23.5 -24t21 -20.5l-72 -80q-35 33 -50.5 49.5 t-37.5 44t-39 57.5q-39 70 -39 187z" />
<glyph unicode=")" horiz-adv-x="579" d="M170 -98l10.5 10.5l11 11l10.5 10.5t11 11.5t9.5 10.5t10 11.5t9 11.5t9 12.5t7.5 12.5l8 14q29 63 29 154v1102q0 90 -29 153q-24 45 -96 117l72 80q35 -33 50.5 -49.5t37.5 -44t39 -57.5q39 -70 39 -187v-1126q0 -117 -39 -187q-17 -30 -39 -57.5t-37.5 -44 t-50.5 -49.5z" />
<glyph unicode="*" horiz-adv-x="1161" d="M276 979l226 123l-226 123l46 75l219 -131l-6 258h90l-9 -258l224 131l43 -75l-226 -123l226 -123l-43 -78l-224 133l9 -258h-90l6 258l-219 -133z" />
<glyph unicode="+" horiz-adv-x="1161" d="M158 530v103h368v356h105v-356h368v-103h-368v-383h-105v383h-368z" />
<glyph unicode="," horiz-adv-x="575" d="M57 -258l162 436h184l-253 -436h-93z" />
<glyph unicode="-" horiz-adv-x="929" d="M170 530v103h588v-103h-588z" />
<glyph unicode="." horiz-adv-x="512" d="M162 0v186h186v-186h-186z" />
<glyph unicode="/" horiz-adv-x="1011" d="M170 -111l555 1690h111l-551 -1690h-115z" />
<glyph unicode="0" horiz-adv-x="1058" d="M147 362v738q0 41 8.5 85.5t34.5 98t66.5 94.5t111.5 69t162 28q89 0 159 -28t109.5 -69t65.5 -94.5t34.5 -98.5t8.5 -87v-738q0 -43 -9 -88t-35 -98.5t-67 -94.5t-112 -69t-162 -28q-89 0 -158.5 28t-109 69.5t-65 95.5t-34 99t-8.5 88zM260 365q0 -67 19.5 -117.5 t47.5 -79.5t66.5 -47t71 -23.5t65.5 -5.5t65 5.5t69.5 23.5t65.5 47t46.5 79.5t18.5 117.5v729q0 67 -19 117.5t-46.5 78.5t-65.5 45.5t-69.5 23t-64.5 5.5t-65 -5.5t-71 -23t-67 -45.5t-47.5 -78.5t-19.5 -117.5v-729z" />
<glyph unicode="1" horiz-adv-x="1067" d="M168 0v111h307v1232l-223 -16v107l336 26v-1349h315v-111h-735z" />
<glyph unicode="2" horiz-adv-x="1058" d="M123 1100q0 163 116 269t296 106q179 0 289 -108.5t110 -285.5q0 -174 -139 -297q-61 -53 -215 -145t-211 -141q-67 -55 -99 -109.5t-32 -136.5v-141h694v-111h-807v264q0 101 49.5 180t136.5 148q61 48 204.5 134t201.5 132t82 98.5t24 122.5q0 135 -75 210t-213 75 q-131 0 -215 -70t-84 -194h-113z" />
<glyph unicode="3" horiz-adv-x="1058" d="M127 362h113q0 -65 20.5 -115t51 -78.5t71 -46.5t75 -24t68.5 -6q35 0 69.5 6t75.5 24.5t72 48t51.5 80.5t20.5 118v108q0 66 -22 116.5t-53 77.5t-73.5 44t-75.5 21.5t-67 4.5h-63v105l323 504h-594v110h707v-127l-317 -491q82 -7 146 -34.5t101 -64.5t60.5 -85 t32 -90.5t8.5 -86.5v-112q0 -43 -11 -90.5t-40 -101.5t-72.5 -96.5t-115.5 -70.5t-161 -28q-91 0 -163.5 25.5t-116 65t-72 91.5t-39 100.5t-10.5 97.5z" />
<glyph unicode="4" horiz-adv-x="1058" d="M141 424v139l332 897h111l-338 -925h557v561h112v-1096h-112v424h-662z" />
<glyph unicode="5" horiz-adv-x="1058" d="M115 365h112q0 -126 81 -199.5t218 -73.5q123 0 212 76t89 207v98q0 121 -77.5 205t-219.5 84h-352v135l41 561h643v-110h-540l-33 -476h246q107 0 199 -48t149 -139.5t57 -207.5v-100q0 -169 -122 -282t-292 -113q-172 0 -291.5 106.5t-119.5 276.5z" />
<glyph unicode="6" horiz-adv-x="1058" d="M127 352v744q0 41 11 87.5t40 99.5t73 95t117 69.5t164 27.5q88 0 156.5 -27t108.5 -67.5t66.5 -93.5t35.5 -98t10 -89h-112q-1 64 -19 113.5t-45 77t-64 45t-69.5 23t-67.5 5.5q-36 0 -71 -5.5t-76.5 -23.5t-72 -46.5t-51.5 -79t-21 -117.5v-308q102 127 292 127 q89 0 160.5 -27t114.5 -67.5t71.5 -93.5t39 -100.5t10.5 -92.5v-174q0 -40 -11 -85.5t-40 -98t-72.5 -94t-116.5 -69t-164 -27.5q-89 0 -161 27t-114.5 67.5t-71.5 92.5t-39.5 97t-10.5 86zM240 362q0 -65 21 -115.5t51.5 -79.5t71 -47t74.5 -24t66 -6q33 0 67 5.5t76 23.5 t73.5 46.5t53 79.5t21.5 117v166q0 66 -21.5 117.5t-53.5 80t-73.5 46.5t-75.5 23.5t-67 5.5t-66 -5.5t-74 -23.5t-71.5 -46.5t-51.5 -80t-21 -117.5v-166z" />
<glyph unicode="7" horiz-adv-x="1058" d="M106 1350v110h844v-127l-495 -1333h-121l506 1350h-734z" />
<glyph unicode="8" horiz-adv-x="1058" d="M111 395q0 247 198 353q-93 57 -136.5 154t-43.5 183q0 49 10.5 98.5t39 103.5t72 94.5t116 67t163.5 26.5q90 0 161.5 -26.5t115.5 -67.5t73 -94.5t40.5 -103t11.5 -98.5q0 -84 -47.5 -180t-143.5 -155q59 -33 101.5 -79.5t64 -95.5t30.5 -93t9 -87q0 -50 -10.5 -101.5 t-40 -109t-74.5 -101.5t-120 -72.5t-171 -28.5q-94 0 -169 28.5t-120.5 72.5t-76 101t-42 109t-11.5 102zM227 395q0 -74 22.5 -130.5t55.5 -88t76.5 -51.5t79 -26.5t69.5 -6.5q33 0 68 6t79 26t77.5 51.5t56.5 88.5t23 131q0 140 -86.5 219.5t-217.5 79.5q-133 0 -218 -80 t-85 -219zM242 1085q0 -131 79.5 -205.5t208.5 -74.5q130 0 209.5 75t79.5 205q0 67 -21.5 119t-53 81.5t-73 48t-75.5 24.5t-66 6t-65.5 -6t-75 -24.5t-73 -48t-53 -81.5t-21.5 -119z" />
<glyph unicode="9" horiz-adv-x="1058" d="M127 926v174q0 33 8 70t25 80.5t49 82.5t74.5 71.5t106.5 51.5t140 19q89 0 161 -27t115 -68t71.5 -92.5t39.5 -97t11 -86.5v-744q0 -42 -10.5 -88t-39 -99t-71.5 -94.5t-115.5 -69t-163.5 -27.5q-88 0 -157 27t-110 67t-68 93t-37 98.5t-11 88.5h113q1 -64 20 -113.5 t47 -77t66 -45t71 -23t68 -5.5t69 5.5t75 23.5t70.5 47t50 79.5t20.5 117.5v307q-102 -127 -293 -127q-89 0 -160.5 28t-114 70t-71 95.5t-39 99.5t-10.5 88zM240 928q0 -66 21.5 -117.5t53 -80t73 -46.5t75.5 -23.5t67 -5.5t66.5 5.5t74 23.5t71.5 46.5t52 80t21 117.5v166 q0 66 -21 117t-51.5 79t-72 45.5t-74.5 23t-66 5.5t-66.5 -5.5t-75.5 -23t-73.5 -45.5t-53 -79t-21.5 -117v-166z" />
<glyph unicode=":" horiz-adv-x="512" d="M162 0v186h186v-186h-186zM162 680v186h186v-186h-186z" />
<glyph unicode=";" horiz-adv-x="507" d="M0 -258l162 436h184l-254 -436h-92zM162 680v186h186v-186h-186z" />
<glyph unicode="&#x3c;" horiz-adv-x="1034" d="M170 543l535 536h153l-530 -536l536 -543h-153z" />
<glyph unicode="=" horiz-adv-x="1220" d="M244 399v103h731v-103h-731zM244 702v103h731v-103h-731z" />
<glyph unicode="&#x3e;" horiz-adv-x="1038" d="M170 0l537 543l-531 536h154l536 -536l-542 -543h-154z" />
<glyph unicode="?" horiz-adv-x="919" d="M57 1106q0 42 11.5 88t41 97.5t73.5 91.5t116.5 66t161.5 26q178 0 288.5 -109.5t110.5 -284.5q0 -125 -88 -227q-36 -43 -124.5 -109.5t-119.5 -99.5q-59 -62 -59 -184v-51h-113v45q0 158 90 256q39 43 123 104t117 98q62 69 62 166q0 139 -74.5 214t-212.5 75 q-33 0 -66 -5t-74 -22t-72 -44.5t-53.5 -76.5t-25.5 -114h-113zM334 0v170h168v-170h-168z" />
<glyph unicode="@" horiz-adv-x="1249" d="M223 -80v1180q0 40 11 85.5t40 98.5t72.5 94.5t116.5 69t164 27.5q89 0 161 -27.5t114.5 -69.5t71.5 -94.5t39.5 -98.5t10.5 -87v-1057h-113v74q-74 -77 -176 -74q-114 0 -189 66.5t-75 193.5v408q0 127 77.5 194.5t192.5 67.5q44 0 92 -20t78 -58v201q0 66 -21 117 t-51.5 79t-71.5 45.5t-74 23t-66 5.5t-67 -6t-75.5 -24t-73.5 -46.5t-53.5 -80t-21.5 -117.5v-1164q0 -65 20.5 -115.5t51 -79.5t71 -47.5t75 -25t67.5 -6.5v-113q-91 1 -163.5 28t-115 68t-70.5 93.5t-38.5 99.5t-10.5 92zM573 311q0 -84 45.5 -126t116.5 -42 q75 0 125.5 40.5t50.5 125.5v398q0 82 -51.5 121.5t-122.5 39.5t-117.5 -42t-46.5 -126v-389z" />
<glyph unicode="A" horiz-adv-x="1110" d="M57 0l381 1460h226l387 -1460h-109l-111 426h-550l-113 -426h-111zM307 535h496l-213 825h-70z" />
<glyph unicode="B" horiz-adv-x="1126" d="M170 0v1460h422q91 0 160.5 -27t108 -66.5t62 -92t31 -95t7.5 -85.5v-25q0 -37 -7.5 -76t-26 -85t-56.5 -87t-91 -67q63 -25 107 -67t63.5 -91.5t27 -89.5t7.5 -80v-51q0 -41 -8.5 -85.5t-34.5 -98t-66.5 -94.5t-111.5 -69t-162 -28h-432zM283 113h315q34 0 66 5 t71.5 22.5t68 45.5t48.5 78t20 117v43q0 67 -17 117.5t-43.5 79.5t-63 47t-70 24t-70.5 6h-325v-585zM283 809h317q37 0 68 5t66 21.5t58.5 44t39.5 77t16 116.5v19q0 258 -260 258h-305v-541z" />
<glyph unicode="C" horiz-adv-x="1071" d="M150 362v738q0 33 8 70t25 80.5t49 82.5t74.5 71.5t106.5 51.5t140 19q89 0 161.5 -27.5t115.5 -69.5t72.5 -94.5t40.5 -98.5t11 -87h-112q0 66 -21.5 116t-52.5 77.5t-73 45t-75.5 22.5t-66.5 5q-27 0 -54.5 -4t-62.5 -13.5t-64.5 -29.5t-55 -48t-40 -72.5t-14.5 -100.5 v-734q0 -66 21.5 -117t53 -79t73.5 -45.5t76 -23t67 -5.5t66.5 5.5t75.5 23t73 45t52.5 78t21.5 116.5h112q0 -34 -8 -71.5t-25 -81.5t-49 -83t-74.5 -71.5t-106.5 -51.5t-140 -19q-89 0 -161 28t-115.5 69.5t-73 95t-40.5 100t-11 87.5z" />
<glyph unicode="D" horiz-adv-x="1126" d="M170 0v1462h422q91 0 162 -28t111.5 -69t66.5 -94.5t34.5 -98t8.5 -85.5v-706q0 -43 -8.5 -88t-34 -99.5t-65 -96t-109 -69.5t-158.5 -28h-430zM283 111h313q33 0 65 5.5t70 23.5t65.5 46.5t46.5 79t19 117.5v698q0 67 -19.5 117.5t-47.5 79t-66.5 46t-71 23t-65.5 5.5 h-309v-1241z" />
<glyph unicode="E" horiz-adv-x="1046" d="M170 0v1460h766v-110h-653v-521h604v-110h-604v-608h653v-111h-766z" />
<glyph unicode="F" horiz-adv-x="1026" d="M170 0v1460h766v-110h-653v-523h604v-110h-604v-717h-113z" />
<glyph unicode="G" d="M150 362v738q0 33 8 70t25 80.5t49 82.5t74.5 71.5t106.5 51.5t140 19q90 0 161.5 -26.5t115 -67t73 -92.5t40.5 -99.5t11 -91.5h-112q0 66 -21.5 116t-52.5 77t-73 44t-75.5 22t-66.5 5q-34 0 -67 -5t-75.5 -22t-73.5 -44.5t-53 -78t-22 -116.5v-734q0 -56 14.5 -100.5 t40 -72.5t55 -48t64.5 -29.5t62.5 -13.5t54.5 -4q33 0 66.5 5t75.5 22.5t73 45t52.5 78.5t21.5 117v310h-312v110h424v-422q0 -41 -11 -87.5t-40 -99.5t-73 -94.5t-117 -69t-164 -27.5q-89 0 -161 28t-115 69.5t-72 95t-40 100t-11 87.5z" />
<glyph unicode="H" horiz-adv-x="1175" d="M170 0v1460h113v-637h608v637h113v-1460h-113v713h-608v-713h-113z" />
<glyph unicode="I" horiz-adv-x="454" d="M170 0v1460h113v-1460h-113z" />
<glyph unicode="J" horiz-adv-x="929" d="M47 354h113q0 -78 23.5 -132.5t63 -81t78.5 -37.5t83 -11q46 0 85.5 10.5t78 36.5t61 79t22.5 128v1004h-450v110h563v-1102q0 -177 -96 -276.5t-266 -99.5q-167 0 -263 102t-96 270z" />
<glyph unicode="K" horiz-adv-x="1048" d="M170 0v1460h113v-772l544 772h129l-456 -647l489 -813h-131l-424 717l-151 -228v-489h-113z" />
<glyph unicode="L" horiz-adv-x="972" d="M170 0v1460h113v-1349h651v-111h-764z" />
<glyph unicode="M" horiz-adv-x="1361" d="M170 0v1460h162l348 -839l344 839h166v-1460h-113v1303l-344 -838h-106l-344 838v-1303h-113z" />
<glyph unicode="N" horiz-adv-x="1157" d="M170 0v1460h152l550 -1302v1302h113v-1460h-158l-544 1286v-1286h-113z" />
<glyph unicode="O" d="M150 362v738q0 33 8 70t25 80.5t49 82.5t74.5 71.5t106.5 51.5t140 19q89 0 161.5 -27.5t115.5 -69.5t72.5 -94.5t40.5 -98.5t11 -87v-738q0 -34 -8 -71.5t-25 -81.5t-49 -83t-74.5 -71.5t-106.5 -51.5t-140 -19q-89 0 -161 28t-115.5 69.5t-73 95t-40.5 100t-11 87.5z M262 362q0 -66 21.5 -117t53 -79t73.5 -45.5t76 -23t67 -5.5t66.5 5.5t75.5 23t73 45.5t52.5 79t21.5 117v734q0 66 -21.5 117t-52.5 78.5t-73 45t-75.5 22.5t-66.5 5q-27 0 -54.5 -4t-62.5 -13.5t-64.5 -29.5t-55 -48t-40 -72.5t-14.5 -100.5v-734z" />
<glyph unicode="P" horiz-adv-x="1075" d="M170 0v1460h422q91 0 162 -28t111.5 -69t66.5 -94.5t34.5 -98t8.5 -85.5v-110q0 -43 -8.5 -88t-34 -99t-65 -95t-109 -69t-158.5 -28h-317v-596h-113zM283 707h309q33 0 65 5.5t71 23t67 45.5t47.5 78.5t19.5 117.5v104q0 56 -13.5 100.5t-36.5 73t-50.5 48.5t-60 29.5 t-59.5 13.5t-54 4h-305v-643z" />
<glyph unicode="Q" d="M150 362v738q0 33 8 70t25 80.5t49 82.5t74.5 71.5t106.5 51.5t140 19q89 0 161.5 -27.5t115.5 -69.5t72.5 -94.5t40.5 -98.5t11 -87v-738q0 -39 -9.5 -82.5t-35 -94t-64 -91t-101.5 -71t-142 -37.5v-209h-102v211q-78 7 -140.5 37.5t-100.5 71.5t-63.5 91t-35.5 93.5 t-10 82.5zM262 362q0 -70 22.5 -122t60 -81t75.5 -43.5t80 -19.5v289h102v-291q43 5 80.5 19.5t76 43.5t61 81.5t22.5 123.5v734q0 66 -21.5 117t-52.5 78.5t-73 45t-75.5 22.5t-66.5 5q-27 0 -54.5 -4t-62.5 -13.5t-64.5 -29.5t-55 -48t-40 -72.5t-14.5 -100.5v-734z" />
<glyph unicode="R" horiz-adv-x="1112" d="M170 0v1460h422q66 0 121.5 -14.5t94 -38t69 -56t48.5 -66.5t29.5 -71.5t16 -68t4.5 -58.5v-71q0 -37 -6.5 -76.5t-26 -87.5t-50 -87.5t-83 -72.5t-119.5 -47l307 -645h-129l-297 637h-288v-637h-113zM283 748h309q33 0 65 5.5t71 23t67 45.5t47.5 78.5t19.5 117.5v63 q0 56 -13.5 100.5t-36.5 73t-50.5 48.5t-60 29.5t-59.5 13.5t-54 4h-305v-602z" />
<glyph unicode="S" horiz-adv-x="1067" d="M111 360h112q0 -125 83.5 -197.5t215.5 -72.5q145 0 232.5 77t87.5 198q0 91 -41 151.5t-119 104.5q-71 40 -191 102.5t-165 87.5q-86 46 -138.5 127.5t-52.5 181.5q0 156 110 256.5t281 100.5q179 0 292.5 -105.5t113.5 -269.5h-113q0 125 -81.5 194.5t-211.5 69.5 q-122 0 -200 -66.5t-78 -185.5q0 -142 147 -217q248 -126 338 -176q107 -59 164 -151.5t57 -209.5q0 -163 -124.5 -271.5t-305.5 -108.5q-185 0 -299 108.5t-114 271.5z" />
<glyph unicode="T" horiz-adv-x="970" d="M59 1348v112h850v-112h-368v-1348h-113v1348h-369z" />
<glyph unicode="U" d="M150 362v1098h112v-1098q0 -66 21.5 -117t53 -79t73.5 -45.5t76 -23t67 -5.5t66.5 5.5t75.5 23t73 45.5t52.5 79t21.5 117v1098h112v-1100q0 -44 -10.5 -90.5t-38.5 -99.5t-71 -93.5t-115.5 -67.5t-163.5 -27q-78 0 -142.5 18.5t-107 50.5t-74 70.5t-48.5 83t-25 83 t-8 74.5z" />
<glyph unicode="V" horiz-adv-x="1075" d="M59 1460h109l336 -1354h69l332 1354h109l-363 -1460h-225z" />
<glyph unicode="W" horiz-adv-x="1630" d="M59 1460h115l266 -1354l316 1352h116l314 -1352l268 1354h115l-305 -1460h-156l-293 1253l-297 -1253h-156z" />
<glyph unicode="X" horiz-adv-x="1003" d="M59 0l379 735l-377 725h125l312 -624l315 624h125l-377 -725l381 -735h-129l-313 629l-312 -629h-129z" />
<glyph unicode="Y" horiz-adv-x="1005" d="M59 1460h123l320 -794l319 794h123l-387 -934v-526h-113v528z" />
<glyph unicode="Z" horiz-adv-x="931" d="M68 0v115l641 1235h-613v110h731v-108l-641 -1241h676v-111h-794z" />
<glyph unicode="[" horiz-adv-x="626" d="M170 -174v1763h285v-100h-183v-1563h183v-100h-285z" />
<glyph unicode="\" horiz-adv-x="1003" d="M170 1573h111l550 -1690h-108z" />
<glyph unicode="]" horiz-adv-x="626" d="M170 -74h182v1563h-182v100h285v-1763h-285v100z" />
<glyph unicode="^" horiz-adv-x="1003" d="M170 893l279 518h108l274 -518h-112l-217 405l-217 -405h-115z" />
<glyph unicode="_" horiz-adv-x="1085" d="M-2 -246h1087v-92h-1087v92z" />
<glyph unicode="`" horiz-adv-x="620" d="M170 1518h131l148 -301h-101z" />
<glyph unicode="a" horiz-adv-x="1073" d="M121 324q0 140 94 217t242 77h340v132q0 129 -68.5 183t-189.5 54q-53 0 -98.5 -11.5t-83.5 -36.5t-59.5 -69.5t-21.5 -105.5h-112q0 70 23.5 128t61 95.5t87 63t100 36.5t101.5 11q72 0 135.5 -18.5t118 -56.5t86.5 -107t32 -160v-756h-112v129q-106 -147 -324 -147 q-68 0 -129.5 20t-112 59.5t-80.5 107.5t-30 155zM233 324q0 -68 21 -115t60 -71.5t83.5 -35t100.5 -10.5q119 0 209 73t90 195v156h-334q-108 0 -169 -46.5t-61 -145.5z" />
<glyph unicode="b" horiz-adv-x="1099" d="M170 0v1458h113v-487q107 127 276 127q180 0 284.5 -102t104.5 -279v-355q0 -175 -106 -278.5t-283 -103.5q-87 0 -160 32t-116 94v-106h-113zM283 362q0 -52 11.5 -95.5t40 -85.5t85.5 -66.5t139 -24.5q131 0 204 71.5t73 200.5v355q0 40 -7 75.5t-25.5 72.5t-48.5 63 t-80.5 42.5t-115.5 16.5q-132 0 -204 -70.5t-72 -199.5v-355z" />
<glyph unicode="c" horiz-adv-x="1052" d="M150 362v355q0 173 109 277t288 104q174 0 280 -96t113 -263h-111q-2 38 -11 71t-29.5 66.5t-51 57t-79.5 38.5t-111 15q-133 0 -209 -71t-76 -199v-355q0 -51 13 -95.5t43 -86t88.5 -66t140.5 -24.5q124 0 198.5 63.5t81.5 178.5h113q-9 -161 -116.5 -256.5 t-276.5 -95.5q-182 0 -289.5 102t-107.5 280z" />
<glyph unicode="d" horiz-adv-x="1101" d="M150 362v355q0 177 104.5 279t284.5 102q171 0 278 -127v487h113v-1458h-113v106q-43 -62 -117 -94t-161 -32q-177 0 -283 103.5t-106 278.5zM262 362q0 -129 73 -200.5t204 -71.5q82 0 139.5 24.5t86 66.5t40.5 86t12 95v355q0 129 -73 199.5t-205 70.5 q-65 0 -115.5 -16.5t-80.5 -42.5t-48.5 -63t-25.5 -72.5t-7 -75.5v-355z" />
<glyph unicode="e" horiz-adv-x="1083" d="M150 362v355q0 173 109 277t288 104q181 0 288 -102.5t107 -278.5v-205h-680v-150q0 -51 13 -95.5t43 -86t88.5 -66t140.5 -24.5q124 0 198.5 63.5t81.5 178.5h113q-9 -161 -116.5 -256.5t-276.5 -95.5q-182 0 -289.5 102t-107.5 280zM262 623h567v94q0 51 -13 95 t-42.5 85.5t-87.5 65.5t-139 24q-133 0 -209 -71t-76 -199v-94z" />
<glyph unicode="f" horiz-adv-x="673" d="M49 967v110h195v88q0 139 69.5 217t208.5 78h76v-110h-96q-57 0 -101.5 -38t-44.5 -122v-113h267v-110h-267v-967h-112v967h-195z" />
<glyph unicode="g" horiz-adv-x="1099" d="M150 362v355q0 173 106.5 277t284.5 104q86 0 161.5 -32.5t112.5 -92.5v106h113v-1173q0 -84 -21.5 -149t-57 -106t-86.5 -67t-105 -36.5t-117 -10.5q-158 0 -263 85t-112 231h113q7 -99 77 -152t185 -53q44 0 78 4t73 20t64 42.5t42 75.5t17 116v200q-92 -126 -274 -126 t-286.5 102t-104.5 280zM262 362q0 -51 12 -95t41 -86t86.5 -66.5t139.5 -24.5q130 0 202 71.5t72 200.5v355q0 40 -6.5 75.5t-25 72.5t-48 63t-79.5 42.5t-115 16.5q-132 0 -205.5 -70.5t-73.5 -199.5v-355z" />
<glyph unicode="h" horiz-adv-x="1114" d="M170 0v1458h113v-508q48 75 129 111.5t170 36.5q178 0 273 -100.5t95 -280.5v-717h-112v717q0 42 -4.5 75t-20 71.5t-42 64t-75 42.5t-114.5 17q-127 0 -213 -74.5t-86 -191.5v-721h-113z" />
<glyph unicode="i" horiz-adv-x="489" d="M170 1294v183h147v-183h-147zM190 0v1079h113v-1079h-113z" />
<glyph unicode="j" horiz-adv-x="479" d="M6 -352h27q143 0 143 147v1284h113v-1274q0 -135 -68.5 -201.5t-177.5 -66.5h-37v111zM160 1294v183h147v-183h-147z" />
<glyph unicode="k" horiz-adv-x="1021" d="M170 0v1458h113v-962l528 583h147l-409 -446l412 -633h-134l-352 551l-192 -211v-340h-113z" />
<glyph unicode="l" horiz-adv-x="495" d="M162 268v1192h112v-1202q0 -147 144 -147h26v-111h-36q-109 0 -177.5 66.5t-68.5 201.5z" />
<glyph unicode="m" horiz-adv-x="1560" d="M170 0v1081h113v-110q51 73 119 100t155 27q88 0 148 -46t88 -120q99 166 315 166q61 0 111 -18.5t82.5 -48.5t54.5 -70t31.5 -81.5t9.5 -84.5v-795h-113v780q0 91 -44.5 149t-141.5 58q-258 0 -258 -295v-692h-113v774q0 88 -46 150.5t-138 62.5q-260 0 -260 -297v-690 h-113z" />
<glyph unicode="n" horiz-adv-x="1114" d="M170 0v1077h113v-127q99 148 299 148q178 0 273 -100.5t95 -280.5v-717h-112v717q0 42 -4.5 75t-20 71.5t-42 64t-75 42.5t-114.5 17q-127 0 -213 -74.5t-86 -191.5v-721h-113z" />
<glyph unicode="o" horiz-adv-x="1093" d="M150 362v355q0 173 109 277t288 104q181 0 288 -102.5t107 -278.5v-355q0 -174 -108.5 -278t-286.5 -104q-182 0 -289.5 102t-107.5 280zM262 362q0 -51 13 -95.5t43 -86t88.5 -66t140.5 -24.5q131 0 206.5 72t75.5 200v355q0 51 -13 95t-42.5 85.5t-87.5 65.5t-139 24 q-133 0 -209 -71t-76 -199v-355z" />
<glyph unicode="p" horiz-adv-x="1101" d="M170 -463v1542h113v-104q88 123 276 123q178 0 284.5 -104t106.5 -277v-355q0 -178 -104.5 -280t-286.5 -102q-86 0 -160 32t-116 97v-572h-113zM283 362q0 -129 72.5 -200.5t203.5 -71.5q82 0 139.5 24.5t86.5 66.5t41 86t12 95v355q0 129 -73.5 199.5t-205.5 70.5 q-81 0 -138 -24t-85.5 -65.5t-40.5 -85.5t-12 -95v-355z" />
<glyph unicode="q" horiz-adv-x="1099" d="M150 362v355q0 173 106.5 277t284.5 104q180 0 274 -123v104h113v-1542h-113v572q-51 -71 -118.5 -100t-155.5 -29q-182 0 -286.5 102t-104.5 280zM262 362q0 -51 12 -95t41 -86t86.5 -66.5t139.5 -24.5q130 0 202 71.5t72 200.5v355q0 40 -6.5 75.5t-25 72.5t-48 63 t-79.5 42.5t-115 16.5q-132 0 -205.5 -70.5t-73.5 -199.5v-355z" />
<glyph unicode="r" horiz-adv-x="645" d="M170 0v1077h113v-133q35 69 97.5 101t127.5 32h65v-110h-67q-38 0 -75.5 -15t-71.5 -45.5t-55 -86.5t-21 -128v-692h-113z" />
<glyph unicode="s" horiz-adv-x="1011" d="M111 319h112q0 -108 75 -166.5t204 -58.5q284 0 284 217q0 113 -145 156q-52 16 -285 68q-99 23 -164 92.5t-65 165.5q0 78 30 137.5t82 95t117 53t140 17.5q174 0 281 -87.5t108 -244.5h-113q-2 106 -72.5 163.5t-207.5 57.5q-252 0 -252 -192q0 -54 40 -95.5t105 -56.5 q252 -56 293 -68q100 -29 160.5 -96t60.5 -166q0 -87 -31.5 -152t-87.5 -102t-125.5 -55t-152.5 -18q-174 0 -282.5 90t-108.5 245z" />
<glyph unicode="t" horiz-adv-x="729" d="M49 967v110h215v381h113v-381h246v-110h-246v-709q0 -147 143 -147h107v-111h-117q-109 0 -177.5 66.5t-68.5 201.5v699h-215z" />
<glyph unicode="u" horiz-adv-x="1118" d="M162 362v717h112v-717q0 -51 12 -95t41 -85.5t86.5 -65.5t139.5 -24q124 0 202.5 70.5t78.5 187.5v729h112v-1079h-112v109q-96 -127 -281 -127q-182 0 -286.5 101.5t-104.5 278.5z" />
<glyph unicode="v" horiz-adv-x="944" d="M59 1079h117l270 -975h50l270 975h117l-303 -1079h-218z" />
<glyph unicode="w" horiz-adv-x="1435" d="M90 1079h115l217 -970l237 970h115l240 -970l215 970h114l-251 -1079h-150l-225 922l-225 -922h-148z" />
<glyph unicode="x" horiz-adv-x="901" d="M39 0l346 541l-344 538h131l279 -450l276 450h131l-344 -540l346 -539h-135l-272 442l-283 -442h-131z" />
<glyph unicode="y" horiz-adv-x="942" d="M49 1079h117l266 -975h57l254 975h117l-344 -1290q-22 -81 -52 -132t-72 -77t-86.5 -34.5t-112.5 -8.5h-52v111h78q78 0 120 27t64 108l62 217h-113z" />
<glyph unicode="z" horiz-adv-x="921" d="M90 0v113l576 854h-555v110h673v-112l-575 -854h620v-111h-739z" />
<glyph unicode="{" horiz-adv-x="622" d="M170 86v1274q0 70 12 109.5t41 68.5q53 53 180 53h48v-100h-37q-55 0 -77 -3.5t-36 -19.5q-29 -29 -29 -133v-1233q0 -54 5.5 -81.5t23.5 -43.5q10 -11 26.5 -16t31 -5.5t55.5 -0.5h37v-100h-48q-127 0 -180 53q-29 29 -41 68.5t-12 109.5z" />
<glyph unicode="|" horiz-adv-x="446" d="M170 -119v1696h102v-1696h-102z" />
<glyph unicode="}" horiz-adv-x="630" d="M170 -47h43h27q68 0 88 20q28 28 28 125v1243q0 97 -28 125q-16 16 -38 19.5t-77 3.5h-43v100h53q127 0 183 -53q29 -29 41 -68.5t12 -109.5v-1274q0 -70 -12 -109.5t-41 -68.5q-56 -53 -183 -53h-53v100z" />
<glyph unicode="~" horiz-adv-x="1097" d="M170 539q70 70 116 93t105 23q58 0 160 -49t158 -49q39 0 68.5 14.5t78.5 63.5l70 -55q-72 -70 -117 -93.5t-104 -23.5q-51 0 -158 49t-162 49q-39 0 -68.5 -14.5t-78.5 -63.5z" />
<glyph unicode="&#xa1;" horiz-adv-x="512" d="M170 944v170h170v-170h-170zM195 -342v1032h112v-1032h-112z" />
<glyph unicode="&#xa2;" horiz-adv-x="1052" d="M150 362v355q0 159 94.5 261.5t251.5 117.5v290h102v-290q153 -14 244 -108t98 -249h-111q-2 38 -11 71t-29.5 66.5t-51 57t-79.5 38.5t-111 15q-133 0 -209 -71t-76 -199v-355q0 -51 13 -95.5t43 -86t88.5 -66t140.5 -24.5q124 0 198.5 63.5t81.5 178.5h113 q-9 -149 -101.5 -242.5t-240.5 -107.5v-291h-102v291q-161 14 -253.5 114.5t-92.5 265.5z" />
<glyph unicode="&#xa3;" horiz-adv-x="1058" d="M111 725v111h79v260q0 166 101.5 270t271.5 104q167 0 275 -105t108 -269h-112q0 64 -19 113.5t-47.5 77t-67.5 45t-72 23t-67 5.5q-36 0 -69 -6.5t-68.5 -24t-61.5 -45.5t-42.5 -75.5t-16.5 -108.5v-264h453v-111h-453v-614h641v-111h-754v725h-79z" />
<glyph unicode="&#xa5;" horiz-adv-x="1058" d="M90 1460h119l319 -794l320 794h119l-342 -833h252v-103h-293v-200h293v-103h-293v-221h-113v221h-289v103h289v198l-2 2h-287v103h246z" />
<glyph unicode="&#xa6;" horiz-adv-x="446" d="M166 -57v632h113v-632h-113zM166 885v631h113v-631h-113z" />
<glyph unicode="&#xa7;" horiz-adv-x="1144" d="M170 319h113q0 -108 74.5 -166.5t203.5 -58.5q289 0 289 217q0 63 -37.5 104.5t-99.5 55.5q-36 8 -147.5 32.5t-178.5 39.5q-89 19 -146 86t-57 164q0 123 76 202q-61 67 -61 170q0 78 29.5 137.5t81.5 95t117 53t140 17.5q176 0 282.5 -88.5t106.5 -246.5h-110 q0 107 -72 166t-211 59q-51 0 -93.5 -8.5t-82 -29t-62 -60t-22.5 -95.5q0 -55 35 -95.5t96 -53.5q67 -15 174 -38.5t144 -31.5q98 -22 159.5 -92t61.5 -170q0 -128 -70 -211q55 -68 55 -162q0 -87 -31.5 -152t-87.5 -102t-125.5 -55t-152.5 -18q-174 0 -282.5 90t-108.5 245 zM289 793q0 -55 35 -96t96 -54q68 -15 175 -38.5t142 -31.5q42 -9 80 -30q47 53 47 141q0 63 -37.5 104.5t-99.5 55.5q-36 8 -147.5 32t-178.5 39q-34 8 -53 17q-59 -49 -59 -139z" />
<glyph unicode="&#xa8;" horiz-adv-x="929" d="M170 1292v185h147v-185h-147zM610 1292v185h148v-185h-148z" />
<glyph unicode="&#xa9;" horiz-adv-x="1810" d="M170 723q0 200 98.5 369t267.5 267.5t369 98.5t368.5 -98.5t266.5 -267.5t98 -369t-98 -369t-266.5 -267.5t-368.5 -98.5t-369 98.5t-267.5 267.5t-98.5 369zM272 723q0 -130 50.5 -247t135.5 -201.5t202 -134.5t245 -50t245 50t201.5 134.5t134.5 201.5t50 247 q0 129 -50 246t-134.5 202t-201.5 135t-245 50t-245 -50t-202 -134.5t-135.5 -201.5t-50.5 -247zM668 522v400q0 24 5 50t20 57t38.5 55t65 40.5t94.5 16.5q52 0 93 -16.5t64.5 -41t38.5 -56t20 -57.5t5 -50h-94q0 39 -12.5 65.5t-33 39t-40 17.5t-41.5 5q-21 0 -40.5 -5 t-41 -17.5t-34.5 -40t-13 -66.5v-394q0 -39 13 -67t34.5 -40.5t41 -18t40.5 -5.5t41 5t40.5 18t33 40t12.5 66h94q0 -32 -9.5 -66t-32 -71.5t-70 -61.5t-113.5 -24q-52 0 -93 16.5t-64 41t-37.5 56.5t-19.5 58t-5 51z" />
<glyph unicode="&#xaa;" horiz-adv-x="847" d="M162 952q0 94 62.5 146.5t162.5 52.5h205v74q0 141 -154 141q-67 0 -112 -34.5t-45 -108.5h-93q0 60 23.5 107t61 73t79.5 39.5t84 13.5q65 0 118.5 -20.5t91.5 -73.5t38 -133v-492h-92v64q-73 -76 -184 -76q-109 0 -177.5 56t-68.5 171zM254 952q0 -137 158 -137 q71 0 125.5 43.5t54.5 116.5v92h-203q-135 0 -135 -115z" />
<glyph unicode="&#xab;" horiz-adv-x="1005" d="M68 543l370 370v-147l-225 -223l225 -226v-145zM483 543l371 370v-147l-227 -223l227 -226v-145z" />
<glyph unicode="&#xac;" horiz-adv-x="1159" d="M162 713v110h833v-463h-112v353h-721z" />
<glyph unicode="&#xad;" horiz-adv-x="929" d="M170 530v103h588v-103h-588z" />
<glyph unicode="&#xae;" horiz-adv-x="1810" d="M170 723q0 200 98.5 369t267.5 267.5t369 98.5t368.5 -98.5t266.5 -267.5t98 -369t-98 -369t-266.5 -267.5t-368.5 -98.5t-369 98.5t-267.5 267.5t-98.5 369zM272 723q0 -130 50.5 -247t135.5 -201.5t202 -134.5t245 -50t245 50t201.5 134.5t134.5 201.5t50 247t-50 247 t-134.5 201.5t-201.5 134.5t-245 50t-245 -50t-202 -134.5t-135.5 -201.5t-50.5 -247zM694 305v815h244q52 0 93 -16.5t64 -40t37.5 -55t19.5 -56.5t5 -49v-49q0 -28 -7.5 -58t-25 -64.5t-56 -60.5t-91.5 -34l168 -332h-103l-168 330h-90v-330h-90zM784 723h156q16 0 31.5 3 t33.5 11.5t31 22.5t22 38t9 56v45q0 39 -13 67t-34 40.5t-41 18t-41 5.5h-154v-307z" />
<glyph unicode="&#xaf;" horiz-adv-x="948" d="M170 1257v105h606v-105h-606z" />
<glyph unicode="&#xb0;" horiz-adv-x="714" d="M100 1206q0 106 75 181t179 75q107 0 182.5 -74.5t75.5 -181.5q0 -105 -75.5 -180.5t-182.5 -75.5q-104 0 -179 76t-75 180zM193 1206q0 -66 47.5 -112.5t113.5 -46.5q68 0 116 46.5t48 112.5q0 67 -48 114.5t-116 47.5q-66 0 -113.5 -47.5t-47.5 -114.5z" />
<glyph unicode="&#xb1;" horiz-adv-x="1167" d="M162 0v102h839v-102h-839zM162 530v103h368v336h105v-336h369v-103h-369v-342h-105v342h-368z" />
<glyph unicode="&#xb2;" horiz-adv-x="755" d="M162 739v148q0 95 98 172q23 17 93.5 58t103.5 71q43 37 43 90q0 57 -31.5 88t-89.5 31q-54 0 -88.5 -34t-34.5 -95h-94q0 96 61.5 158.5t155.5 62.5q95 0 154 -57.5t59 -151.5q0 -96 -74 -160q-31 -27 -102.5 -68.5t-104.5 -68.5q-29 -26 -42 -46.5t-13 -55.5v-47h334 v-95h-428z" />
<glyph unicode="&#xb3;" horiz-adv-x="749" d="M162 950h92q0 -38 12.5 -65.5t32.5 -40.5t38 -18t36 -5t36.5 4.5t39 15.5t33 35t12.5 58v51q0 34 -13 57.5t-33.5 33.5t-38.5 14t-36 4h-51v73l139 219h-268v93h378v-86l-139 -215q45 -9 77 -30t48 -49t22.5 -55.5t6.5 -56.5v-53q0 -29 -10.5 -61.5t-32.5 -67t-66 -56.5 t-102 -22q-49 0 -87.5 15t-61.5 38.5t-38 54t-20.5 59t-5.5 56.5z" />
<glyph unicode="&#xb4;" horiz-adv-x="620" d="M170 1217l147 301h132l-181 -301h-98z" />
<glyph unicode="&#xb5;" horiz-adv-x="1126" d="M170 -397v1476h113v-717q0 -40 6.5 -75.5t25.5 -72.5t49 -63t80.5 -42.5t116.5 -16.5q124 0 202.5 70.5t78.5 187.5v729h112v-1079h-112v109q-96 -127 -281 -127q-173 0 -278 94v-473h-113z" />
<glyph unicode="&#xb6;" horiz-adv-x="1146" d="M170 1135q0 168 96 253t271 85h438v-1473h-113v1362h-211v-1362h-112v819q-165 0 -267 90.5t-102 225.5z" />
<glyph unicode="&#xb7;" horiz-adv-x="520" d="M170 457v180h178v-180h-178z" />
<glyph unicode="&#xb8;" horiz-adv-x="581" d="M170 -379l137 291h103l-115 -291h-125z" />
<glyph unicode="&#xb9;" horiz-adv-x="716" d="M162 739v92h147v555l-108 -10v90l200 19v-654h152v-92h-391z" />
<glyph unicode="&#xba;" horiz-adv-x="851" d="M162 975v225q0 116 72 185t190 69q121 0 192.5 -68t71.5 -186v-225q0 -116 -72.5 -185t-191.5 -69q-121 0 -191.5 68t-70.5 186zM254 975q0 -68 38 -116t132 -48q79 0 124.5 43.5t45.5 120.5v225q0 69 -38.5 116.5t-131.5 47.5q-80 0 -125 -43t-45 -121v-225z" />
<glyph unicode="&#xbb;" horiz-adv-x="1003" d="M150 174v145l225 226l-225 223v147l368 -370zM565 174v145l223 226l-223 223v147l369 -370z" />
<glyph unicode="&#xbc;" horiz-adv-x="1476" d="M162 739v92h147v555l-108 -10v90l200 19v-654h152v-92h-391zM410 -111l555 1690h100l-551 -1690h-104zM901 205v86l168 452h92l-164 -446h224v270h92v-567h-92v205h-320z" />
<glyph unicode="&#xbd;" horiz-adv-x="1544" d="M162 739v92h147v555q-19 -1 -57.5 -5t-50.5 -5v90l200 19v-654h152v-92h-391zM410 -111l555 1690h100l-551 -1690h-104zM950 0v147q0 95 99 172q20 15 56 35.5t64.5 38t57.5 40t45 49.5t16 57q0 57 -31.5 87.5t-89.5 30.5q-54 0 -88.5 -34t-34.5 -95h-94q0 97 61.5 159.5 t155.5 62.5q95 0 154 -57.5t59 -151.5q0 -97 -73 -160q-25 -22 -75.5 -51.5t-88.5 -52t-68.5 -59t-30.5 -77.5v-47h334v-94h-428z" />
<glyph unicode="&#xbe;" horiz-adv-x="1497" d="M162 950h92q0 -38 12.5 -65.5t32.5 -40.5t38 -18t36 -5t36.5 4.5t39 15.5t33 35t12.5 58v51q0 34 -13 57.5t-33.5 33.5t-38.5 14t-36 4h-51v73l139 219h-268v93h378v-86l-139 -215q45 -9 77 -30t48 -49t22.5 -55.5t6.5 -56.5v-53q0 -29 -10.5 -61.5t-32.5 -67t-66 -56.5 t-102 -22q-49 0 -87.5 15t-61.5 38.5t-38 54t-20.5 59t-5.5 56.5zM430 -111l555 1690h100l-550 -1690h-105zM922 205v86l168 452h92l-164 -446h223v270h92v-567h-92v205h-319z" />
<glyph unicode="&#xbf;" horiz-adv-x="878" d="M57 12q0 126 88 228q36 43 124.5 109.5t119.5 99.5q60 63 60 184v51h112v-45q0 -158 -90 -256q-39 -43 -123 -104.5t-117 -98.5q-61 -68 -61 -166q0 -139 74.5 -213.5t212.5 -74.5q33 0 66 5.5t74 22.5t72 44.5t53.5 77t25.5 114.5h112q0 -42 -11.5 -88.5t-41 -98 t-73 -91.5t-116 -66.5t-161.5 -26.5q-178 0 -289 109t-111 284zM416 924v170h168v-170h-168z" />
<glyph unicode="&#xc0;" horiz-adv-x="1110" d="M57 0l381 1460h226l387 -1460h-109l-111 426h-550l-113 -426h-111zM307 535h496l-213 825h-70zM354 1901h131l148 -302h-101z" />
<glyph unicode="&#xc1;" horiz-adv-x="1110" d="M57 0l381 1460h226l387 -1460h-109l-111 426h-550l-113 -426h-111zM307 535h496l-213 825h-70zM467 1599l147 302h131l-180 -302h-98z" />
<glyph unicode="&#xc2;" horiz-adv-x="1110" d="M57 0l381 1460h226l387 -1460h-109l-111 426h-550l-113 -426h-111zM291 1622l205 256h112l205 -256h-100l-160 166l-160 -166h-102zM307 535h496l-213 825h-70z" />
<glyph unicode="&#xc3;" horiz-adv-x="1110" d="M57 0l381 1460h226l387 -1460h-109l-111 426h-550l-113 -426h-111zM238 1694q60 59 101.5 78.5t82.5 19.5q47 0 131.5 -46t128.5 -46q58 0 121 63l65 -63q-60 -59 -102 -78.5t-82 -19.5q-48 0 -130 46t-130 46q-28 0 -54 -12.5t-67 -51.5zM307 535h496l-213 825h-70z" />
<glyph unicode="&#xc4;" horiz-adv-x="1110" d="M57 0l381 1460h226l387 -1460h-109l-111 426h-550l-113 -426h-111zM262 1624v184h148v-184h-148zM307 535h496l-213 825h-70zM702 1624v184h148v-184h-148z" />
<glyph unicode="&#xc5;" horiz-adv-x="1110" d="M57 0l381 1460h226l387 -1460h-109l-111 426h-550l-113 -426h-111zM307 535h496l-213 825h-70zM348 1757q0 85 60 145t143 60q86 0 146.5 -59.5t60.5 -145.5q0 -84 -60.5 -144.5t-146.5 -60.5q-83 0 -143 61t-60 144zM434 1757q0 -47 35 -82t82 -35q49 0 85 35t36 82 q0 49 -35.5 84t-85.5 35q-48 0 -82.5 -35t-34.5 -84z" />
<glyph unicode="&#xc6;" horiz-adv-x="1624" d="M57 0l381 1460h1075v-110h-655v-521h604v-110h-604v-608h655v-111h-768v426h-466l-113 -426h-109zM305 537h440v813h-225z" />
<glyph unicode="&#xc7;" horiz-adv-x="1060" d="M139 362v738q0 40 11 85.5t40 98.5t72.5 94.5t116.5 69t164 27.5q89 0 161.5 -27.5t115.5 -69.5t72.5 -94.5t40.5 -98.5t11 -87h-113q0 66 -21.5 116t-52.5 77.5t-72.5 45t-75 22.5t-66.5 5q-27 0 -54.5 -4t-62.5 -13.5t-64.5 -29.5t-55 -48t-40 -72.5t-14.5 -100.5v-734 q0 -66 21.5 -117t53 -79t73.5 -45.5t76 -23t67 -5.5t66.5 5.5t75 23t72.5 45t52.5 78t21.5 116.5h113q0 -34 -8 -71.5t-25 -81.5t-49 -83t-74.5 -71.5t-106.5 -51.5t-140 -19q-89 0 -161.5 28t-116 69.5t-72.5 95t-40.5 100t-11.5 87.5zM362 -379l138 291h102l-115 -291 h-125z" />
<glyph unicode="&#xc8;" horiz-adv-x="1046" d="M170 0v1460h766v-110h-653v-521h604v-110h-604v-608h653v-111h-766zM387 1903h131l148 -301h-101z" />
<glyph unicode="&#xc9;" horiz-adv-x="1046" d="M170 0v1460h766v-110h-653v-521h604v-110h-604v-608h653v-111h-766zM444 1599l148 302h131l-180 -302h-99z" />
<glyph unicode="&#xca;" horiz-adv-x="1046" d="M170 0v1460h766v-110h-653v-521h604v-110h-604v-608h653v-111h-766zM293 1622l205 256h112l205 -256h-100l-160 166l-160 -166h-102z" />
<glyph unicode="&#xcb;" horiz-adv-x="1046" d="M170 0v1460h766v-110h-653v-521h604v-110h-604v-608h653v-111h-766zM262 1622v184h148v-184h-148zM702 1622v184h148v-184h-148z" />
<glyph unicode="&#xcc;" horiz-adv-x="450" d="M2 1901h131l148 -302h-101zM172 0v1460h113v-1460h-113z" />
<glyph unicode="&#xcd;" horiz-adv-x="456" d="M172 0v1460h113v-1460h-113zM176 1599l148 302h131l-181 -302h-98z" />
<glyph unicode="&#xce;" horiz-adv-x="454" d="M-33 1622l205 256h113l204 -256h-100l-160 166l-159 -166h-103zM172 0v1460h113v-1460h-113z" />
<glyph unicode="&#xcf;" horiz-adv-x="454" d="M-66 1624v184h148v-184h-148zM172 0v1460h113v-1460h-113zM375 1624v184h147v-184h-147z" />
<glyph unicode="&#xd0;" horiz-adv-x="1257" d="M162 723v102h127v637h422q91 0 162 -28t111.5 -69t66.5 -94.5t34.5 -98t8.5 -85.5v-706q0 -43 -8.5 -88t-34 -99.5t-65 -96t-109 -69.5t-158.5 -28h-430v723h-127zM401 111h314q33 0 65 5.5t70 23.5t65.5 46.5t46.5 79t19 117.5v698q0 67 -19.5 117.5t-47.5 79t-66.5 46 t-71 23t-65.5 5.5h-310v-527h349v-102h-349v-612z" />
<glyph unicode="&#xd1;" horiz-adv-x="1157" d="M170 0v1460h152l550 -1302v1302h113v-1460h-158l-544 1286v-1286h-113zM256 1688q60 59 101.5 78.5t82.5 19.5q47 0 131.5 -46t128.5 -46q58 0 121 63l66 -63q-60 -59 -102.5 -79t-82.5 -20q-48 0 -130 46.5t-130 46.5q-28 0 -53.5 -12t-66.5 -52z" />
<glyph unicode="&#xd2;" d="M150 362v738q0 33 8 70t25 80.5t49 82.5t74.5 71.5t106.5 51.5t140 19q89 0 161.5 -27.5t115.5 -69.5t72.5 -94.5t40.5 -98.5t11 -87v-738q0 -34 -8 -71.5t-25 -81.5t-49 -83t-74.5 -71.5t-106.5 -51.5t-140 -19q-89 0 -161 28t-115.5 69.5t-73 95t-40.5 100t-11 87.5z M262 362q0 -66 21.5 -117t53 -79t73.5 -45.5t76 -23t67 -5.5t66.5 5.5t75.5 23t73 45.5t52.5 79t21.5 117v734q0 66 -21.5 117t-52.5 78.5t-73 45t-75.5 22.5t-66.5 5q-27 0 -54.5 -4t-62.5 -13.5t-64.5 -29.5t-55 -48t-40 -72.5t-14.5 -100.5v-734zM387 1901h131l148 -302 h-101z" />
<glyph unicode="&#xd3;" d="M150 362v738q0 33 8 70t25 80.5t49 82.5t74.5 71.5t106.5 51.5t140 19q89 0 161.5 -27.5t115.5 -69.5t72.5 -94.5t40.5 -98.5t11 -87v-738q0 -34 -8 -71.5t-25 -81.5t-49 -83t-74.5 -71.5t-106.5 -51.5t-140 -19q-89 0 -161 28t-115.5 69.5t-73 95t-40.5 100t-11 87.5z M262 362q0 -66 21.5 -117t53 -79t73.5 -45.5t76 -23t67 -5.5t66.5 5.5t75.5 23t73 45.5t52.5 79t21.5 117v734q0 66 -21.5 117t-52.5 78.5t-73 45t-75.5 22.5t-66.5 5q-27 0 -54.5 -4t-62.5 -13.5t-64.5 -29.5t-55 -48t-40 -72.5t-14.5 -100.5v-734zM424 1599l147 302h131 l-180 -302h-98z" />
<glyph unicode="&#xd4;" d="M150 362v738q0 33 8 70t25 80.5t49 82.5t74.5 71.5t106.5 51.5t140 19q89 0 161.5 -27.5t115.5 -69.5t72.5 -94.5t40.5 -98.5t11 -87v-738q0 -34 -8 -71.5t-25 -81.5t-49 -83t-74.5 -71.5t-106.5 -51.5t-140 -19q-89 0 -161 28t-115.5 69.5t-73 95t-40.5 100t-11 87.5z M262 362q0 -66 21.5 -117t53 -79t73.5 -45.5t76 -23t67 -5.5t66.5 5.5t75.5 23t73 45.5t52.5 79t21.5 117v734q0 66 -21.5 117t-52.5 78.5t-73 45t-75.5 22.5t-66.5 5q-27 0 -54.5 -4t-62.5 -13.5t-64.5 -29.5t-55 -48t-40 -72.5t-14.5 -100.5v-734zM293 1622l205 256h112 l205 -256h-100l-160 166l-160 -166h-102z" />
<glyph unicode="&#xd5;" d="M150 362v738q0 33 8 70t25 80.5t49 82.5t74.5 71.5t106.5 51.5t140 19q89 0 161.5 -27.5t115.5 -69.5t72.5 -94.5t40.5 -98.5t11 -87v-738q0 -34 -8 -71.5t-25 -81.5t-49 -83t-74.5 -71.5t-106.5 -51.5t-140 -19q-89 0 -161 28t-115.5 69.5t-73 95t-40.5 100t-11 87.5z M233 1694q60 59 102 78.5t83 19.5q47 0 131.5 -46t128.5 -46q58 0 121 63l65 -63q-60 -59 -102 -78.5t-82 -19.5q-48 0 -130 46t-130 46q-28 0 -54 -12.5t-67 -51.5zM262 362q0 -66 21.5 -117t53 -79t73.5 -45.5t76 -23t67 -5.5t66.5 5.5t75.5 23t73 45.5t52.5 79t21.5 117 v734q0 66 -21.5 117t-52.5 78.5t-73 45t-75.5 22.5t-66.5 5q-27 0 -54.5 -4t-62.5 -13.5t-64.5 -29.5t-55 -48t-40 -72.5t-14.5 -100.5v-734z" />
<glyph unicode="&#xd6;" d="M150 362v738q0 33 8 70t25 80.5t49 82.5t74.5 71.5t106.5 51.5t140 19q89 0 161.5 -27.5t115.5 -69.5t72.5 -94.5t40.5 -98.5t11 -87v-738q0 -34 -8 -71.5t-25 -81.5t-49 -83t-74.5 -71.5t-106.5 -51.5t-140 -19q-89 0 -161 28t-115.5 69.5t-73 95t-40.5 100t-11 87.5z M260 1622v184h148v-184h-148zM262 362q0 -66 21.5 -117t53 -79t73.5 -45.5t76 -23t67 -5.5t66.5 5.5t75.5 23t73 45.5t52.5 79t21.5 117v734q0 66 -21.5 117t-52.5 78.5t-73 45t-75.5 22.5t-66.5 5q-27 0 -54.5 -4t-62.5 -13.5t-64.5 -29.5t-55 -48t-40 -72.5t-14.5 -100.5 v-734zM700 1622v184h148v-184h-148z" />
<glyph unicode="&#xd7;" horiz-adv-x="1161" d="M229 274l279 279l-279 278l72 72l279 -278l278 278l72 -72l-279 -278l279 -279l-72 -71l-278 278l-279 -278z" />
<glyph unicode="&#xd8;" d="M150 362v738q0 33 8 70t25 80.5t49 82.5t74.5 71.5t106.5 51.5t140 19q105 0 180 -35l45 139h111l-66 -199q67 -57 99 -136.5t32 -145.5v-738q0 -34 -8 -71.5t-25 -81.5t-49 -83t-74.5 -71.5t-106.5 -51.5t-140 -19q-94 0 -172 30l-41 -123h-115l60 183 q-68 59 -100.5 140t-32.5 150zM262 362q0 -113 57 -180l379 1153q-67 29 -145 29q-27 0 -54.5 -4t-62.5 -13.5t-64.5 -29.5t-55 -48t-40 -72.5t-14.5 -100.5v-734zM412 119q60 -27 141 -27q33 0 66.5 5.5t75.5 23t73 45.5t52.5 79t21.5 117v734q0 106 -56 172z" />
<glyph unicode="&#xd9;" d="M150 362v1098h112v-1098q0 -66 21.5 -117t53 -79t73.5 -45.5t76 -23t67 -5.5t66.5 5.5t75.5 23t73 45.5t52.5 79t21.5 117v1098h112v-1100q0 -44 -10.5 -90.5t-38.5 -99.5t-71 -93.5t-115.5 -67.5t-163.5 -27q-78 0 -142.5 18.5t-107 50.5t-74 70.5t-48.5 83t-25 83 t-8 74.5zM391 1901h131l148 -302h-101z" />
<glyph unicode="&#xda;" d="M150 362v1098h112v-1098q0 -66 21.5 -117t53 -79t73.5 -45.5t76 -23t67 -5.5t66.5 5.5t75.5 23t73 45.5t52.5 79t21.5 117v1098h112v-1100q0 -44 -10.5 -90.5t-38.5 -99.5t-71 -93.5t-115.5 -67.5t-163.5 -27q-78 0 -142.5 18.5t-107 50.5t-74 70.5t-48.5 83t-25 83 t-8 74.5zM428 1599l147 302h132l-181 -302h-98z" />
<glyph unicode="&#xdb;" d="M150 362v1098h112v-1098q0 -66 21.5 -117t53 -79t73.5 -45.5t76 -23t67 -5.5t66.5 5.5t75.5 23t73 45.5t52.5 79t21.5 117v1098h112v-1100q0 -44 -10.5 -90.5t-38.5 -99.5t-71 -93.5t-115.5 -67.5t-163.5 -27q-78 0 -142.5 18.5t-107 50.5t-74 70.5t-48.5 83t-25 83 t-8 74.5zM293 1622l205 256h112l205 -256h-100l-160 166l-160 -166h-102z" />
<glyph unicode="&#xdc;" d="M150 362v1098h112v-1098q0 -66 21.5 -117t53 -79t73.5 -45.5t76 -23t67 -5.5t66.5 5.5t75.5 23t73 45.5t52.5 79t21.5 117v1098h112v-1100q0 -44 -10.5 -90.5t-38.5 -99.5t-71 -93.5t-115.5 -67.5t-163.5 -27q-78 0 -142.5 18.5t-107 50.5t-74 70.5t-48.5 83t-25 83 t-8 74.5zM260 1624v184h148v-184h-148zM700 1624v184h148v-184h-148z" />
<glyph unicode="&#xdd;" horiz-adv-x="1005" d="M59 1460h123l320 -794l319 794h123l-387 -934v-526h-113v528zM383 1599l147 302h132l-181 -302h-98z" />
<glyph unicode="&#xde;" horiz-adv-x="1155" d="M170 0v1460h113v-327h348q174 0 278.5 -109t104.5 -287q0 -182 -102.5 -289.5t-280.5 -107.5h-348v-340h-113zM283 453h348q51 0 95.5 13t86 42.5t66 88t24.5 140.5q0 131 -72 207t-200 76h-348v-567z" />
<glyph unicode="&#xdf;" horiz-adv-x="1122" d="M170 0v1098q0 41 8.5 85.5t34.5 98t66.5 94.5t111.5 69t162 28q89 0 158.5 -28t109 -69.5t65 -95.5t34 -99t8.5 -87q0 -92 -40.5 -170.5t-117.5 -104.5q65 -22 110 -64t65 -92.5t28 -91t8 -79.5v-111q0 -43 -8.5 -88.5t-34 -100t-65 -95.5t-109 -69t-158.5 -28h-106v111 h102q33 0 65 5.5t70 23.5t65.5 46t46.5 78.5t19 116.5v104q0 67 -17 117.5t-42 79t-60 46t-65 23t-63 5.5h-48v110h45h9q92 0 140 60.5t48 165.5q0 67 -18.5 117.5t-46 78.5t-65 45.5t-68.5 23t-64 5.5t-65 -5.5t-71 -23t-67 -45.5t-47.5 -78.5t-19.5 -117.5v-1092h-113z " />
<glyph unicode="&#xe0;" horiz-adv-x="1073" d="M121 324q0 140 94 217t242 77h340v132q0 129 -68.5 183t-189.5 54q-53 0 -98.5 -11.5t-83.5 -36.5t-59.5 -69.5t-21.5 -105.5h-112q0 70 23.5 128t61 95.5t87 63t100 36.5t101.5 11q72 0 135.5 -18.5t118 -56.5t86.5 -107t32 -160v-756h-112v129q-106 -147 -324 -147 q-68 0 -129.5 20t-112 59.5t-80.5 107.5t-30 155zM233 324q0 -68 21 -115t60 -71.5t83.5 -35t100.5 -10.5q119 0 209 73t90 195v156h-334q-108 0 -169 -46.5t-61 -145.5zM381 1518h131l147 -301h-100z" />
<glyph unicode="&#xe1;" horiz-adv-x="1073" d="M121 324q0 140 94 217t242 77h340v132q0 129 -68.5 183t-189.5 54q-53 0 -98.5 -11.5t-83.5 -36.5t-59.5 -69.5t-21.5 -105.5h-112q0 70 23.5 128t61 95.5t87 63t100 36.5t101.5 11q72 0 135.5 -18.5t118 -56.5t86.5 -107t32 -160v-756h-112v129q-106 -147 -324 -147 q-68 0 -129.5 20t-112 59.5t-80.5 107.5t-30 155zM233 324q0 -68 21 -115t60 -71.5t83.5 -35t100.5 -10.5q119 0 209 73t90 195v156h-334q-108 0 -169 -46.5t-61 -145.5zM438 1217l148 301h131l-180 -301h-99z" />
<glyph unicode="&#xe2;" horiz-adv-x="1073" d="M121 324q0 140 94 217t242 77h340v132q0 129 -68.5 183t-189.5 54q-53 0 -98.5 -11.5t-83.5 -36.5t-59.5 -69.5t-21.5 -105.5h-112q0 70 23.5 128t61 95.5t87 63t100 36.5t101.5 11q72 0 135.5 -18.5t118 -56.5t86.5 -107t32 -160v-756h-112v129q-106 -147 -324 -147 q-68 0 -129.5 20t-112 59.5t-80.5 107.5t-30 155zM233 324q0 -68 21 -115t60 -71.5t83.5 -35t100.5 -10.5q119 0 209 73t90 195v156h-334q-108 0 -169 -46.5t-61 -145.5zM283 1217l204 256h113l205 -256h-100l-160 165l-160 -165h-102z" />
<glyph unicode="&#xe3;" horiz-adv-x="1073" d="M121 324q0 140 94 217t242 77h340v132q0 129 -68.5 183t-189.5 54q-53 0 -98.5 -11.5t-83.5 -36.5t-59.5 -69.5t-21.5 -105.5h-112q0 70 23.5 128t61 95.5t87 63t100 36.5t101.5 11q72 0 135.5 -18.5t118 -56.5t86.5 -107t32 -160v-756h-112v129q-106 -147 -324 -147 q-68 0 -129.5 20t-112 59.5t-80.5 107.5t-30 155zM225 1368q60 59 102 78.5t83 19.5q47 0 131.5 -46t128.5 -46q57 0 121 64l65 -64q-60 -59 -102 -78.5t-82 -19.5q-48 0 -130 46t-130 46q-29 0 -54.5 -12t-66.5 -51zM233 324q0 -68 21 -115t60 -71.5t83.5 -35t100.5 -10.5 q119 0 209 73t90 195v156h-334q-108 0 -169 -46.5t-61 -145.5z" />
<glyph unicode="&#xe4;" horiz-adv-x="1073" d="M121 324q0 140 94 217t242 77h340v132q0 129 -68.5 183t-189.5 54q-53 0 -98.5 -11.5t-83.5 -36.5t-59.5 -69.5t-21.5 -105.5h-112q0 70 23.5 128t61 95.5t87 63t100 36.5t101.5 11q72 0 135.5 -18.5t118 -56.5t86.5 -107t32 -160v-756h-112v129q-106 -147 -324 -147 q-68 0 -129.5 20t-112 59.5t-80.5 107.5t-30 155zM233 324q0 -68 21 -115t60 -71.5t83.5 -35t100.5 -10.5q119 0 209 73t90 195v156h-334q-108 0 -169 -46.5t-61 -145.5zM248 1292v185h147v-185h-147zM688 1292v185h148v-185h-148z" />
<glyph unicode="&#xe5;" horiz-adv-x="1073" d="M121 324q0 140 94 217t242 77h340v132q0 129 -68.5 183t-189.5 54q-53 0 -98.5 -11.5t-83.5 -36.5t-59.5 -69.5t-21.5 -105.5h-112q0 70 23.5 128t61 95.5t87 63t100 36.5t101.5 11q72 0 135.5 -18.5t118 -56.5t86.5 -107t32 -160v-756h-112v129q-106 -147 -324 -147 q-68 0 -129.5 20t-112 59.5t-80.5 107.5t-30 155zM233 324q0 -68 21 -115t60 -71.5t83.5 -35t100.5 -10.5q119 0 209 73t90 195v156h-334q-108 0 -169 -46.5t-61 -145.5zM342 1403q0 85 60 145t143 60q86 0 146.5 -59.5t60.5 -145.5q0 -84 -60.5 -144.5t-146.5 -60.5 q-83 0 -143 61t-60 144zM428 1403q0 -47 35 -82t82 -35q49 0 85 35t36 82q0 49 -35.5 84t-85.5 35q-48 0 -82.5 -35t-34.5 -84z" />
<glyph unicode="&#xe6;" horiz-adv-x="1728" d="M121 324q0 140 94 218.5t242 78.5h340v131q0 129 -69 182t-191 53q-50 0 -93.5 -10.5t-82 -34.5t-60.5 -68t-22 -104v-6h-113v4q0 70 24 127.5t62 94.5t87.5 62t98.5 35.5t97 10.5q226 0 325 -156q50 74 134.5 115t193.5 41q180 0 284.5 -102t104.5 -279v-205h-668v-150 q0 -51 12 -95t41 -85.5t86.5 -65.5t139.5 -24q123 0 195 62.5t79 177.5h113q-9 -161 -113.5 -255.5t-273.5 -94.5q-114 0 -206.5 52t-135.5 140q-47 -87 -149 -139.5t-224 -52.5q-71 0 -133 20t-111.5 60t-78.5 107t-29 155zM233 324q0 -232 263 -232q73 0 132 24t95 63 t55 85t19 94v160h-334q-108 0 -169 -47.5t-61 -146.5zM909 621h555v96q0 51 -12 95t-40.5 85.5t-85.5 65.5t-138 24q-129 0 -202.5 -67.5t-76.5 -190.5v-108z" />
<glyph unicode="&#xe7;" horiz-adv-x="1052" d="M150 362v355q0 173 109 277t288 104q174 0 280 -96t113 -263h-111q-2 38 -11 71t-29.5 66.5t-51 57t-79.5 38.5t-111 15q-133 0 -209 -71t-76 -199v-355q0 -51 13 -95.5t43 -86t88.5 -66t140.5 -24.5q124 0 198.5 63.5t81.5 178.5h113q-9 -161 -116.5 -256.5 t-276.5 -95.5q-182 0 -289.5 102t-107.5 280zM371 -379l137 291h102l-114 -291h-125z" />
<glyph unicode="&#xe8;" horiz-adv-x="1093" d="M150 362v355q0 173 109 277t288 104q181 0 288 -102.5t107 -278.5v-205h-680v-150q0 -51 13 -95.5t43 -86t88.5 -66t140.5 -24.5q124 0 198.5 63.5t81.5 178.5h113q-9 -161 -116.5 -256.5t-276.5 -95.5q-182 0 -289.5 102t-107.5 280zM262 623h567v94q0 51 -13 95 t-42.5 85.5t-87.5 65.5t-139 24q-133 0 -209 -71t-76 -199v-94zM387 1518h131l148 -301h-101z" />
<glyph unicode="&#xe9;" horiz-adv-x="1093" d="M150 362v355q0 173 109 277t288 104q181 0 288 -102.5t107 -278.5v-205h-680v-150q0 -51 13 -95.5t43 -86t88.5 -66t140.5 -24.5q124 0 198.5 63.5t81.5 178.5h113q-9 -161 -116.5 -256.5t-276.5 -95.5q-182 0 -289.5 102t-107.5 280zM262 623h567v94q0 51 -13 95 t-42.5 85.5t-87.5 65.5t-139 24q-133 0 -209 -71t-76 -199v-94zM440 1217l148 301h131l-180 -301h-99z" />
<glyph unicode="&#xea;" horiz-adv-x="1093" d="M150 362v355q0 173 109 277t288 104q181 0 288 -102.5t107 -278.5v-205h-680v-150q0 -51 13 -95.5t43 -86t88.5 -66t140.5 -24.5q124 0 198.5 63.5t81.5 178.5h113q-9 -161 -116.5 -256.5t-276.5 -95.5q-182 0 -289.5 102t-107.5 280zM262 623h567v94q0 51 -13 95 t-42.5 85.5t-87.5 65.5t-139 24q-133 0 -209 -71t-76 -199v-94zM297 1214l205 256h112l205 -256h-100l-160 166l-160 -166h-102z" />
<glyph unicode="&#xeb;" horiz-adv-x="1093" d="M150 362v355q0 173 109 277t288 104q181 0 288 -102.5t107 -278.5v-205h-680v-150q0 -51 13 -95.5t43 -86t88.5 -66t140.5 -24.5q124 0 198.5 63.5t81.5 178.5h113q-9 -161 -116.5 -256.5t-276.5 -95.5q-182 0 -289.5 102t-107.5 280zM260 1292v185h148v-185h-148z M262 623h567v94q0 51 -13 95t-42.5 85.5t-87.5 65.5t-139 24q-133 0 -209 -71t-76 -199v-94zM700 1292v185h148v-185h-148z" />
<glyph unicode="&#xec;" horiz-adv-x="452" d="M-10 1518h131l147 -301h-100zM168 0v1079h111v-1079h-111z" />
<glyph unicode="&#xed;" horiz-adv-x="456" d="M172 0v1079h111v-1079h-111zM172 1217l147 301h132l-181 -301h-98z" />
<glyph unicode="&#xee;" horiz-adv-x="454" d="M-41 1217l205 256h112l205 -256h-100l-160 165l-160 -165h-102zM170 0v1079h111v-1079h-111z" />
<glyph unicode="&#xef;" horiz-adv-x="450" d="M-72 1292v185h148v-185h-148zM168 0v1079h111v-1079h-111zM369 1292v185h147v-185h-147z" />
<glyph unicode="&#xf0;" horiz-adv-x="1126" d="M162 356v174q0 42 10.5 88t39 99.5t71 95.5t114 70t160.5 28q191 0 293 -127v308q0 56 -16 106l-175 -176l-71 72l190 192q-78 78 -221 78v111q187 0 297 -115l168 172l72 -72l-181 -182q50 -94 50 -182v-744q0 -41 -11 -86t-39.5 -97t-71.5 -92.5t-115 -67.5t-161 -27 q-91 0 -164 27.5t-116.5 69t-72 94t-39.5 98t-11 85.5zM274 362q0 -66 21.5 -117t53 -79t73.5 -45.5t76 -23t67 -5.5t66 5.5t74.5 23t72 45.5t51.5 79t21 117v166q0 66 -21 117.5t-52 80t-71.5 46.5t-74 23.5t-66.5 5.5t-67 -5.5t-75.5 -23.5t-73.5 -46.5t-53.5 -80 t-21.5 -117.5v-166z" />
<glyph unicode="&#xf1;" horiz-adv-x="1114" d="M170 0v1077h113v-127q99 148 299 148q178 0 273 -100.5t95 -280.5v-717h-112v717q0 42 -4.5 75t-20 71.5t-42 64t-75 42.5t-114.5 17q-127 0 -213 -74.5t-86 -191.5v-721h-113zM252 1368q60 59 101.5 78.5t82.5 19.5q47 0 131.5 -46t128.5 -46q57 0 121 64l66 -64 q-60 -59 -102.5 -78.5t-82.5 -19.5q-48 0 -130 46t-130 46q-29 0 -54.5 -12t-66.5 -51z" />
<glyph unicode="&#xf2;" horiz-adv-x="1093" d="M150 362v355q0 173 109 277t288 104q181 0 288 -102.5t107 -278.5v-355q0 -174 -108.5 -278t-286.5 -104q-182 0 -289.5 102t-107.5 280zM262 362q0 -51 13 -95.5t43 -86t88.5 -66t140.5 -24.5q131 0 206.5 72t75.5 200v355q0 51 -13 95t-42.5 85.5t-87.5 65.5t-139 24 q-133 0 -209 -71t-76 -199v-355zM389 1518h131l148 -301h-101z" />
<glyph unicode="&#xf3;" horiz-adv-x="1093" d="M150 362v355q0 173 109 277t288 104q181 0 288 -102.5t107 -278.5v-355q0 -174 -108.5 -278t-286.5 -104q-182 0 -289.5 102t-107.5 280zM262 362q0 -51 13 -95.5t43 -86t88.5 -66t140.5 -24.5q131 0 206.5 72t75.5 200v355q0 51 -13 95t-42.5 85.5t-87.5 65.5t-139 24 q-133 0 -209 -71t-76 -199v-355zM428 1217l147 301h132l-181 -301h-98z" />
<glyph unicode="&#xf4;" horiz-adv-x="1093" d="M150 362v355q0 173 109 277t288 104q181 0 288 -102.5t107 -278.5v-355q0 -174 -108.5 -278t-286.5 -104q-182 0 -289.5 102t-107.5 280zM262 362q0 -51 13 -95.5t43 -86t88.5 -66t140.5 -24.5q131 0 206.5 72t75.5 200v355q0 51 -13 95t-42.5 85.5t-87.5 65.5t-139 24 q-133 0 -209 -71t-76 -199v-355zM287 1214l205 256h112l205 -256h-100l-160 166l-160 -166h-102z" />
<glyph unicode="&#xf5;" horiz-adv-x="1093" d="M150 362v355q0 173 109 277t288 104q181 0 288 -102.5t107 -278.5v-355q0 -174 -108.5 -278t-286.5 -104q-182 0 -289.5 102t-107.5 280zM229 1368q60 59 102 78.5t83 19.5q47 0 131.5 -46t128.5 -46q57 0 121 64l65 -64q-60 -59 -102 -78.5t-82 -19.5q-48 0 -130 46 t-130 46q-29 0 -54.5 -12t-66.5 -51zM262 362q0 -51 13 -95.5t43 -86t88.5 -66t140.5 -24.5q131 0 206.5 72t75.5 200v355q0 51 -13 95t-42.5 85.5t-87.5 65.5t-139 24q-133 0 -209 -71t-76 -199v-355z" />
<glyph unicode="&#xf6;" horiz-adv-x="1093" d="M150 362v355q0 173 109 277t288 104q181 0 288 -102.5t107 -278.5v-355q0 -174 -108.5 -278t-286.5 -104q-182 0 -289.5 102t-107.5 280zM252 1292v185h147v-185h-147zM262 362q0 -51 13 -95.5t43 -86t88.5 -66t140.5 -24.5q131 0 206.5 72t75.5 200v355q0 51 -13 95 t-42.5 85.5t-87.5 65.5t-139 24q-133 0 -209 -71t-76 -199v-355zM692 1292v185h148v-185h-148z" />
<glyph unicode="&#xf7;" horiz-adv-x="1101" d="M164 385v102h758v-102h-758zM449 0v186h186v-186h-186zM449 680v186h186v-186h-186z" />
<glyph unicode="&#xf8;" horiz-adv-x="1093" d="M150 362v355q0 173 109 277t288 104q59 0 129 -17l96 299h113l-113 -340q81 -47 125.5 -129.5t44.5 -193.5v-355q0 -174 -108.5 -278t-286.5 -104q-61 0 -117 12l-94 -295h-115l109 332q-87 46 -133.5 131.5t-46.5 201.5zM262 362q0 -157 103 -225l276 840q-48 10 -94 10 q-133 0 -209 -71t-76 -199v-355zM465 96q37 -6 82 -6q131 0 206.5 72t75.5 200v355q0 147 -92 215z" />
<glyph unicode="&#xf9;" horiz-adv-x="1118" d="M162 362v717h112v-717q0 -51 12 -95t41 -85.5t86.5 -65.5t139.5 -24q124 0 202.5 70.5t78.5 187.5v729h112v-1079h-112v109q-96 -127 -281 -127q-182 0 -286.5 101.5t-104.5 278.5zM385 1518h131l148 -301h-101z" />
<glyph unicode="&#xfa;" horiz-adv-x="1118" d="M162 362v717h112v-717q0 -51 12 -95t41 -85.5t86.5 -65.5t139.5 -24q124 0 202.5 70.5t78.5 187.5v729h112v-1079h-112v109q-96 -127 -281 -127q-182 0 -286.5 101.5t-104.5 278.5zM432 1217l148 301h131l-181 -301h-98z" />
<glyph unicode="&#xfb;" horiz-adv-x="1118" d="M162 362v717h112v-717q0 -51 12 -95t41 -85.5t86.5 -65.5t139.5 -24q124 0 202.5 70.5t78.5 187.5v729h112v-1079h-112v109q-96 -127 -281 -127q-182 0 -286.5 101.5t-104.5 278.5zM289 1217l205 256h112l205 -256h-100l-160 165l-160 -165h-102z" />
<glyph unicode="&#xfc;" horiz-adv-x="1118" d="M162 362v717h112v-717q0 -51 12 -95t41 -85.5t86.5 -65.5t139.5 -24q124 0 202.5 70.5t78.5 187.5v729h112v-1079h-112v109q-96 -127 -281 -127q-182 0 -286.5 101.5t-104.5 278.5zM262 1292v185h148v-185h-148zM702 1292v185h148v-185h-148z" />
<glyph unicode="&#xfd;" horiz-adv-x="952" d="M70 1079h116l267 -975h57l254 975h117l-344 -1290q-22 -81 -52 -132t-72.5 -77t-87 -34.5t-112.5 -8.5h-51v111h78q78 0 120 27t64 108l61 217h-112zM356 1217l148 301h131l-180 -301h-99z" />
<glyph unicode="&#xfe;" horiz-adv-x="1099" d="M170 -463v1921h113v-487q107 127 276 127q180 0 284.5 -102t104.5 -279v-355q0 -175 -106 -278.5t-283 -103.5q-87 0 -160 32t-116 94v-569h-113zM283 362q0 -52 11.5 -95.5t40 -85.5t85.5 -66.5t139 -24.5q131 0 204 71.5t73 200.5v355q0 40 -7 75.5t-25.5 72.5 t-48.5 63t-80.5 42.5t-115.5 16.5q-132 0 -204 -70.5t-72 -199.5v-355z" />
<glyph unicode="&#xff;" horiz-adv-x="911" d="M49 1079h117l266 -975h57l254 975h117l-344 -1290q-22 -81 -52 -132t-72 -77t-86.5 -34.5t-112.5 -8.5h-52v111h78q78 0 120 27t64 108l62 217h-113zM166 1292v185h147v-185h-147zM606 1292v185h148v-185h-148z" />
<glyph unicode="&#x152;" horiz-adv-x="1718" d="M150 362v738q0 33 8 70t25 80.5t49 82.5t74.5 71.5t106.5 51.5t140 19q176 0 289 -109v94h766v-110h-654v-521h605v-110h-605v-608h654v-111h-766v88q-109 -106 -291 -106q-89 0 -161 28t-115.5 69.5t-73 95t-40.5 100t-11 87.5zM262 362q0 -66 21.5 -117t53 -79 t73.5 -45.5t76 -23t67 -5.5q32 0 64.5 5t73.5 21.5t72 42.5t53.5 73.5t25.5 109.5v752q0 66 -21.5 117t-52.5 78.5t-73 45t-75.5 22.5t-66.5 5q-27 0 -54.5 -4t-62.5 -13.5t-64.5 -29.5t-55 -48t-40 -72.5t-14.5 -100.5v-734z" />
<glyph unicode="&#x153;" horiz-adv-x="1748" d="M150 362v355q0 173 106.5 277t284.5 104q114 0 199.5 -43.5t133.5 -122.5q50 79 136 122.5t198 43.5q180 0 284.5 -102t104.5 -279v-205h-667v-168q1 -39 9 -72.5t27.5 -68t49.5 -58.5t79.5 -39.5t112.5 -15.5q123 0 195.5 63.5t79.5 178.5h112q-9 -161 -113.5 -256.5 t-273.5 -95.5q-116 0 -202 42t-134 121q-50 -79 -134.5 -121t-196.5 -42q-182 0 -286.5 102t-104.5 280zM262 362q0 -51 12 -95t41 -86t86.5 -66.5t139.5 -24.5q127 0 199 68.5t77 191.5v385q-2 49 -16 90t-43 79.5t-84.5 60.5t-132.5 22q-132 0 -205.5 -70.5t-73.5 -199.5 v-355zM930 621h555v96q0 40 -7 75.5t-25.5 72.5t-48.5 63t-80.5 42.5t-115.5 16.5q-129 0 -202 -67.5t-76 -190.5v-108z" />
<glyph unicode="&#x178;" horiz-adv-x="1005" d="M59 1460h123l320 -794l319 794h123l-387 -934v-526h-113v528zM211 1624v184h147v-184h-147zM651 1624v184h148v-184h-148z" />
<glyph unicode="&#x2c6;" horiz-adv-x="864" d="M170 1239l205 256h112l205 -256h-100l-160 166l-160 -166h-102z" />
<glyph unicode="&#x2dc;" horiz-adv-x="972" d="M170 1337q61 59 102 79t82 20q46 0 131 -46.5t129 -46.5q57 0 121 64l66 -64q-60 -59 -102.5 -78.5t-82.5 -19.5q-48 0 -130 46t-130 46q-29 0 -54 -12t-66 -51z" />
<glyph unicode="&#x2000;" horiz-adv-x="981" />
<glyph unicode="&#x2001;" horiz-adv-x="1962" />
<glyph unicode="&#x2002;" horiz-adv-x="981" />
<glyph unicode="&#x2003;" horiz-adv-x="1962" />
<glyph unicode="&#x2004;" horiz-adv-x="654" />
<glyph unicode="&#x2005;" horiz-adv-x="490" />
<glyph unicode="&#x2006;" horiz-adv-x="327" />
<glyph unicode="&#x2007;" horiz-adv-x="327" />
<glyph unicode="&#x2008;" horiz-adv-x="245" />
<glyph unicode="&#x2009;" horiz-adv-x="392" />
<glyph unicode="&#x200a;" horiz-adv-x="109" />
<glyph unicode="&#x2010;" horiz-adv-x="929" d="M170 530v103h588v-103h-588z" />
<glyph unicode="&#x2011;" horiz-adv-x="929" d="M170 530v103h588v-103h-588z" />
<glyph unicode="&#x2012;" horiz-adv-x="929" d="M170 530v103h588v-103h-588z" />
<glyph unicode="&#x2013;" horiz-adv-x="1202" d="M170 530v103h860v-103h-860z" />
<glyph unicode="&#x2014;" horiz-adv-x="1732" d="M170 530v103h1384v-103h-1384z" />
<glyph unicode="&#x2018;" horiz-adv-x="464" d="M68 1235l254 436h92l-162 -436h-184z" />
<glyph unicode="&#x2019;" horiz-adv-x="464" d="M68 1235l161 436h185l-254 -436h-92z" />
<glyph unicode="&#x201a;" horiz-adv-x="468" d="M68 -258l161 436h185l-254 -436h-92z" />
<glyph unicode="&#x201c;" horiz-adv-x="757" d="M68 1235l254 436h92l-162 -436h-184zM342 1235l254 436h92l-162 -436h-184z" />
<glyph unicode="&#x201d;" horiz-adv-x="757" d="M68 1235l161 436h185l-254 -436h-92zM342 1235l162 436h184l-254 -436h-92z" />
<glyph unicode="&#x201e;" horiz-adv-x="757" d="M68 -258l161 436h185l-254 -436h-92zM342 -258l162 436h184l-254 -436h-92z" />
<glyph unicode="&#x2022;" horiz-adv-x="765" d="M170 725q0 88 61.5 150.5t149.5 62.5t150.5 -62.5t62.5 -150.5t-62.5 -150.5t-150.5 -62.5t-149.5 62.5t-61.5 150.5z" />
<glyph unicode="&#x2026;" horiz-adv-x="1382" d="M162 0v178h155v-178h-155zM612 0v178h154v-178h-154zM1063 0v178h156v-178h-156z" />
<glyph unicode="&#x202f;" horiz-adv-x="392" />
<glyph unicode="&#x2039;" horiz-adv-x="589" d="M68 543l370 370v-147l-223 -223l223 -226v-145z" />
<glyph unicode="&#x203a;" horiz-adv-x="587" d="M150 172v145l225 226l-225 223v147l368 -370z" />
<glyph unicode="&#x205f;" horiz-adv-x="490" />
<glyph unicode="&#x20ac;" horiz-adv-x="1122" d="M100 535v102h172v201h-172v102h172v160q0 42 8.5 86t34 97.5t66 94.5t111 69t161.5 28q89 0 159 -28t109.5 -69t65.5 -94.5t34.5 -98.5t8.5 -87h-112q0 65 -19 115t-46.5 78t-65 45t-69.5 22.5t-65 5.5t-64.5 -5.5t-70 -23t-66.5 -45.5t-47.5 -78.5t-19.5 -117.5v-154 h399v-102h-399v-201h399v-102h-399v-170q0 -56 13 -101t36 -73.5t49.5 -49t58.5 -30.5t58.5 -14.5t52.5 -4.5q33 0 65 5.5t69.5 23t65.5 45.5t46.5 78.5t18.5 115.5h112q0 -43 -9 -88t-35 -98.5t-67 -94.5t-112 -69t-162 -28q-89 0 -158.5 28t-108.5 69.5t-64 95.5t-33.5 99 t-8.5 88v173h-172z" />
<glyph unicode="&#x2122;" horiz-adv-x="1445" d="M170 1366v92h489v-92h-198v-688h-92v688h-199zM741 678v780h146l123 -444l118 444h146v-780h-90v665l-140 -456h-73l-140 454v-663h-90z" />
<glyph unicode="&#x25fc;" horiz-adv-x="1075" d="M0 0v1075h1075v-1075h-1075z" />
<glyph unicode="&#xfb01;" horiz-adv-x="1142" d="M47 967v110h195v88q0 139 69.5 217t208.5 78h76v-110h-96q-57 0 -101.5 -38t-44.5 -122v-113h600v-1077h-112v967h-488v-967h-112v967h-195zM823 1292v183h148v-183h-148z" />
<glyph unicode="&#xfb02;" horiz-adv-x="1144" d="M47 967v110h195v88q0 139 69.5 217t208.5 78h76v-110h-96q-57 0 -101.5 -38t-44.5 -122v-113h467v383h113v-1202q0 -147 143 -147h27v-111h-37q-109 0 -177.5 66.5t-68.5 201.5v699h-467v-967h-112v967h-195z" />
</font>
</defs>
</svg>
