<?xml version="1.0" standalone="no"?>
<!DOCTYPE svg PUBLIC "-//W3C//DTD SVG 1.1//EN" "http://www.w3.org/Graphics/SVG/1.1/DTD/svg11.dtd" >
<svg xmlns="http://www.w3.org/2000/svg">
<metadata></metadata>
<defs>
<font id="tstarmedium" horiz-adv-x="1112" >
<font-face units-per-em="2048" ascent="1585" descent="-463" />
<missing-glyph horiz-adv-x="450" />
<glyph horiz-adv-x="0" />
<glyph horiz-adv-x="682" />
<glyph unicode=" "  horiz-adv-x="450" />
<glyph unicode="&#x09;" horiz-adv-x="450" />
<glyph unicode="&#xa0;" horiz-adv-x="450" />
<glyph unicode="!" horiz-adv-x="536" d="M164 0v209h209v-209h-209zM188 371v1089h154v-1089h-154z" />
<glyph unicode="&#x22;" horiz-adv-x="720" d="M164 1104v334h151v-334h-151zM406 1104v334h151v-334h-151z" />
<glyph unicode="#" horiz-adv-x="1366" d="M164 465v137h209l45 270h-189v134h207l66 389h143l-61 -389h266l68 389h141l-66 -389h209v-134h-227l-45 -270h209v-137h-230l-67 -424h-142l64 424h-266l-72 -424h-141l67 424h-188zM516 602h268l45 270h-266z" />
<glyph unicode="$" horiz-adv-x="1071" d="M104 367h156q0 -107 74 -169.5t192 -62.5q129 0 207 67.5t78 174.5q0 142 -143 227q-59 34 -174 93t-170 89q-88 47 -141.5 132t-53.5 188q0 142 89.5 241t236.5 121v125h151v-125q153 -23 246.5 -126.5t93.5 -251.5h-158q0 109 -72 170t-186 61q-107 0 -176 -58 t-69 -161q0 -125 129 -191q216 -107 327 -168q110 -60 168 -154.5t58 -215.5q0 -149 -102 -256t-259 -131v-125h-151v125q-161 21 -256 127t-95 254z" />
<glyph unicode="%" horiz-adv-x="1697" d="M164 950v209q0 120 73.5 193t196.5 73q124 0 197.5 -72t73.5 -194v-209q0 -121 -74 -193.5t-197 -72.5q-125 0 -197.5 71.5t-72.5 194.5zM311 950q0 -119 123 -119q60 0 92.5 31t32.5 88v209q0 50 -28 84.5t-97 34.5q-60 0 -91.5 -31t-31.5 -88v-209zM524 0l471 1442h156 l-467 -1442h-160zM991 283v209q0 121 74.5 193.5t196.5 72.5q125 0 198.5 -71t73.5 -195v-209q0 -120 -74.5 -192.5t-197.5 -72.5t-197 72t-74 193zM1139 283q0 -50 27 -84.5t96 -34.5q60 0 92 31t32 88v209q0 120 -124 120q-59 0 -91 -31t-32 -89v-209z" />
<glyph unicode="&#x26;" horiz-adv-x="1331" d="M143 399q0 119 59.5 217t166.5 160l28 17q-103 80 -145.5 153.5t-42.5 171.5q0 75 24.5 137t64 101.5t91 66.5t103 38.5t102.5 11.5q176 0 294 -109t118 -285h-158q0 109 -71 174.5t-183 65.5q-229 0 -229 -205q0 -63 24.5 -101.5t79.5 -84.5l698 -588l-98 -123l-72 62 q-19 -78 -63 -137.5t-103 -93t-122.5 -50t-130.5 -16.5q-63 0 -122.5 13.5t-117 45t-100.5 78t-69 119t-26 161.5zM301 397q0 -60 17 -106.5t44 -75t64.5 -46.5t74.5 -25t77 -7q51 0 96.5 12t87.5 39.5t67 81t25 127.5v2l-336 287q-28 -10 -76 -39q-141 -90 -141 -250z" />
<glyph unicode="'" horiz-adv-x="483" d="M164 1106v332h155v-332h-155z" />
<glyph unicode="(" horiz-adv-x="608" d="M164 176v1075q0 119 39 189q23 43 54.5 78t90.5 90l96 -111l-28 -31q-34 -37 -51.5 -60.5t-32.5 -67.5t-15 -99v-1051q0 -81 25 -130.5t74 -98.5l28 -29l-96 -110q-61 56 -93 91.5t-52 74.5q-39 72 -39 190z" />
<glyph unicode=")" horiz-adv-x="608" d="M164 -70l24 23q42 36 78 98q25 59 25 137v1051q0 80 -25 135q-26 47 -78 99l-24 24l98 109q58 -53 90.5 -89t53.5 -77q38 -70 38 -189v-1075q0 -124 -38 -190q-7 -13 -14.5 -24.5t-18 -25t-17.5 -22t-22 -24t-21 -21.5l-25.5 -25.5l-25.5 -25.5z" />
<glyph unicode="*" horiz-adv-x="1183" d="M270 965l199 110l-199 109l66 112l192 -114l-4 227h133l-8 -231l197 118l65 -112l-200 -109l202 -110l-67 -113l-197 119l8 -230h-133l4 228q-30 -18 -96.5 -59t-95.5 -58z" />
<glyph unicode="+" horiz-adv-x="1157" d="M152 506v145h352v340h147v-340h353v-145h-353v-365h-147v365h-352z" />
<glyph unicode="," horiz-adv-x="620" d="M51 -246l172 463h234l-293 -463h-113z" />
<glyph unicode="-" horiz-adv-x="935" d="M164 506v145h608v-145h-608z" />
<glyph unicode="." horiz-adv-x="542" d="M156 0v231h231v-231h-231z" />
<glyph unicode="/" horiz-adv-x="1024" d="M164 -106l545 1660h151l-541 -1660h-155z" />
<glyph unicode="0" horiz-adv-x="1067" d="M141 375v712q0 43 9 88.5t36 100.5t68.5 97.5t114.5 71t166 28.5q92 0 164 -28.5t113 -71t67.5 -97.5t35.5 -101.5t9 -89.5v-712q0 -44 -9 -90.5t-36.5 -102t-69 -98.5t-114.5 -71.5t-167 -28.5q-92 0 -164 29t-112.5 71.5t-67 98.5t-35 103t-8.5 91zM299 377 q0 -59 17 -104t41.5 -70t58.5 -40.5t62 -20.5t57 -5q30 0 57.5 5t60.5 20.5t57 40.5t40 70t16 104v704q0 72 -23 122.5t-61.5 74t-73.5 32.5t-73 9q-29 0 -57 -5t-62 -20.5t-58.5 -40t-41.5 -69t-17 -103.5v-704z" />
<glyph unicode="1" horiz-adv-x="1075" d="M162 0v154h295v1144l-215 -16v150l372 30v-1308h306v-154h-758z" />
<glyph unicode="2" horiz-adv-x="1067" d="M117 1063q0 179 119 294.5t303 115.5q183 0 297 -111.5t114 -292.5q0 -178 -143 -305q-57 -49 -205.5 -138t-206.5 -139q-61 -50 -90 -98t-29 -121v-112h670v-156h-827v279q0 106 50 186t140 151q47 36 193 122.5t200 131.5q93 75 93 197q0 119 -66.5 184.5t-189.5 65.5 q-115 0 -190 -67.5t-75 -186.5h-157z" />
<glyph unicode="3" horiz-adv-x="1067" d="M121 397h158q0 -63 18 -111t44.5 -75.5t62.5 -45t66 -23t60 -5.5q31 0 62 5t67.5 21.5t63.5 42t45 71t18 104.5v104q0 58 -19 102t-47 68t-65.5 38.5t-67 19t-59.5 4.5h-84v131l293 455h-555v157h731v-155l-290 -447q75 -12 133.5 -42t93 -67.5t56.5 -85t30 -89.5t8 -85 v-108q0 -44 -11.5 -93t-41.5 -104.5t-74.5 -99.5t-118.5 -73t-166 -29q-94 0 -168 28t-118.5 71t-73.5 100.5t-40 110t-11 105.5z" />
<glyph unicode="4" horiz-adv-x="1067" d="M135 410v159l330 891h156l-328 -895h481v541h158v-1106h-158v410h-639z" />
<glyph unicode="5" horiz-adv-x="1062" d="M109 399h157q0 -121 70 -191.5t192 -70.5q110 0 188.5 66.5t78.5 183.5v94q0 107 -69 181.5t-194 74.5h-364v156l43 565h668v-155h-525l-28 -412h211q110 0 204 -49.5t152.5 -143.5t58.5 -213v-96q0 -175 -124.5 -291t-299.5 -116q-176 0 -297.5 115.5t-121.5 301.5z" />
<glyph unicode="6" horiz-adv-x="1067" d="M121 365v718q0 43 11.5 90.5t41.5 102t75 97.5t120 71.5t168 28.5q76 0 138.5 -20t103 -55t70.5 -76.5t46 -89.5t23 -89t8 -80h-158q0 63 -15.5 110.5t-39 74.5t-56 43.5t-61 22t-59.5 5.5q-32 0 -62.5 -5t-67.5 -21t-64 -41t-45.5 -69.5t-18.5 -103.5v-239 q109 88 258 88q93 0 166.5 -27.5t117.5 -69t73 -96t39.5 -103.5t10.5 -95v-168q0 -42 -11 -88.5t-41 -101t-74.5 -97.5t-120 -71.5t-169.5 -28.5q-91 0 -164.5 28t-117.5 70t-73.5 95.5t-40.5 100.5t-11 89zM279 375q0 -58 18.5 -102.5t45.5 -70t62.5 -41.5t65 -21t57.5 -5 q30 0 59.5 5t67 20.5t65.5 40.5t47 70t19 104v160q0 59 -19 104t-47 70t-65.5 40.5t-67 20t-59.5 4.5q-29 0 -58 -4.5t-65 -20t-62.5 -40.5t-45 -70t-18.5 -104v-160z" />
<glyph unicode="7" horiz-adv-x="1062" d="M100 1305v155h863v-149l-488 -1311h-166l490 1305h-699z" />
<glyph unicode="8" horiz-adv-x="1062" d="M104 406q0 57 15.5 115.5t60 123.5t113.5 105q-82 60 -128 148t-46 175q0 50 11 101t40 106t73.5 97t118.5 69t168 27q92 0 166 -27t119 -69t75.5 -97t42 -106t11.5 -101q0 -85 -48.5 -177t-139.5 -148q101 -59 151.5 -156.5t50.5 -185.5q0 -51 -11 -103.5t-41 -111.5 t-76 -104.5t-124 -75t-176 -29.5q-96 0 -172.5 29.5t-122.5 75t-77 104t-42.5 112t-11.5 103.5zM262 406q0 -65 20 -115.5t49 -78.5t67.5 -46t70 -23.5t61.5 -5.5t61 5.5t70 23t69 45.5t50.5 78.5t20.5 116.5q0 124 -77 195t-194 71t-192.5 -71.5t-75.5 -194.5zM274 1073 q0 -115 71.5 -181.5t184.5 -66.5q115 0 185.5 67t70.5 181q0 60 -19 105.5t-47 71.5t-65 42.5t-66.5 21.5t-58.5 5q-28 0 -57.5 -5t-66.5 -21.5t-65 -42t-47.5 -72t-19.5 -105.5z" />
<glyph unicode="9" horiz-adv-x="1067" d="M121 920v167q0 42 11 88.5t41 101t74.5 97t119 71t168.5 28.5q92 0 165.5 -27.5t118 -69.5t74 -95.5t40.5 -100t11 -88.5v-719q0 -43 -10.5 -90.5t-40 -102.5t-73.5 -98t-119 -71.5t-169 -28.5q-90 0 -161 29.5t-113 74t-70 102t-38 107t-11 96.5h156q1 -62 18 -109.5 t42 -74t58.5 -43t62.5 -22t59 -5.5q32 0 62 5t65.5 20.5t62 40.5t44 70t17.5 104v239q-111 -90 -258 -90q-92 0 -166 29t-117.5 72.5t-73 98.5t-40 103t-10.5 91zM279 922q0 -59 19 -104t47 -70t65 -40.5t66.5 -20.5t58.5 -5t58.5 5t65.5 20.5t63 40.5t45.5 70t18.5 104v159 q0 58 -18.5 103t-45.5 69.5t-63 40t-65.5 20.5t-58.5 5t-58.5 -5t-66.5 -20.5t-65 -40t-47 -69.5t-19 -103v-159z" />
<glyph unicode=":" horiz-adv-x="542" d="M156 0v231h231v-231h-231zM156 643v231h231v-231h-231z" />
<glyph unicode=";" horiz-adv-x="548" d="M-6 -246l172 463h231l-291 -463h-112zM141 643v231h232v-231h-232z" />
<glyph unicode="&#x3c;" horiz-adv-x="1075" d="M164 541l532 536h211l-530 -536l536 -541h-211z" />
<glyph unicode="=" horiz-adv-x="1218" d="M238 381v145h743v-145h-743zM238 670v145h743v-145h-743z" />
<glyph unicode="&#x3e;" horiz-adv-x="1081" d="M164 0l538 541l-532 536h211l537 -536l-543 -541h-211z" />
<glyph unicode="?" horiz-adv-x="925" d="M51 1069q0 46 11.5 96.5t42 106.5t75.5 99.5t119 72.5t166 29q183 0 296 -112t113 -292q0 -125 -92 -231q-31 -33 -114.5 -100.5t-118.5 -106.5q-53 -53 -53 -162v-96h-156v90q0 160 92 264q35 37 115 98.5t115 100.5q57 64 57 141q0 121 -66 186.5t-188 65.5 q-30 0 -58.5 -4.5t-64.5 -20.5t-63 -42t-47 -73.5t-23 -109.5h-158zM315 0v211h211v-211h-211z" />
<glyph unicode="@" horiz-adv-x="1255" d="M217 -53v1143q0 42 11 88.5t40.5 100.5t74 96.5t119.5 71t169 28.5q92 0 165.5 -28.5t117.5 -71t73 -97t40 -102t11 -89.5v-1048h-153v45q-55 -45 -137 -45q-61 0 -112.5 15.5t-92 47.5t-63.5 86.5t-23 126.5v394q0 134 81.5 205t202.5 71q83 0 144 -45v143 q0 58 -18.5 103t-46 70t-64 41t-66.5 21t-59 5t-59.5 -5t-68 -21.5t-65.5 -42t-47.5 -71t-19.5 -104.5v-1126q0 -57 20 -102.5t50 -71.5t69 -43t73 -23t66 -6v-153q-99 1 -178 29t-125 70t-76.5 96.5t-41.5 103t-11 94.5zM602 326q0 -71 37.5 -105.5t95.5 -34.5 q63 0 106.5 34t43.5 104v383q0 68 -44.5 100.5t-103.5 32.5q-60 0 -97.5 -34.5t-37.5 -105.5v-374z" />
<glyph unicode="A" horiz-adv-x="1126" d="M51 0l381 1460h256l387 -1460h-155l-107 412h-494l-110 -412h-158zM356 565h416l-194 750h-27z" />
<glyph unicode="B" horiz-adv-x="1132" d="M164 0v1460h432q79 0 142.5 -19t103.5 -52t68 -71t42 -83.5t19.5 -81.5t5.5 -72v-24q0 -47 -13.5 -100.5t-53.5 -113.5t-101 -89q56 -21 96 -62t59 -89.5t27 -89.5t8 -77v-49q0 -43 -9 -89t-35.5 -101t-68 -97.5t-114.5 -71t-166 -28.5h-442zM322 156h280q30 0 58.5 4.5 t63.5 19.5t60 39.5t42.5 68.5t17.5 103v43q0 73 -22 123.5t-59 75t-73.5 34t-77.5 9.5h-290v-520zM322 829h282q32 0 59 4.5t57 19t51 39t34.5 68t13.5 101.5v18q0 226 -227 226h-270v-476z" />
<glyph unicode="C" horiz-adv-x="1077" d="M143 375v712q0 42 11 88.5t40.5 101t74 97t119.5 71t169 28.5q91 0 165 -28.5t118.5 -71.5t75 -97t42 -101.5t11.5 -89.5h-158q0 58 -19 102t-46.5 68.5t-64 39.5t-66 19.5t-58.5 4.5q-30 0 -59.5 -4.5t-67 -20t-65.5 -40t-47 -69t-19 -102.5v-708q0 -59 19 -104 t47 -69.5t65.5 -40t67 -20t59.5 -4.5q29 0 58.5 4.5t66 20t64 39.5t46.5 69t19 103h158q0 -43 -11 -90.5t-40.5 -102.5t-74.5 -98t-119.5 -71.5t-168.5 -28.5q-92 0 -166 29t-118.5 72t-74.5 98t-41.5 103t-11.5 91z" />
<glyph unicode="D" horiz-adv-x="1132" d="M164 0v1462h432q68 0 125.5 -15t97 -39.5t70.5 -58.5t49.5 -69t30 -74t16 -70.5t4.5 -60.5v-684q0 -35 -6.5 -73t-21.5 -84t-44 -86.5t-69.5 -74t-103.5 -53.5t-140 -20h-440zM322 154h278q30 0 58 5t61 20.5t57.5 40.5t41 69.5t16.5 103.5v676q0 59 -17 104t-41.5 69.5 t-59 40t-62.5 20t-58 4.5h-274v-1153z" />
<glyph unicode="E" horiz-adv-x="1054" d="M164 0v1460h788v-155h-633v-455h586v-156h-586v-540h633v-154h-788z" />
<glyph unicode="F" horiz-adv-x="1034" d="M164 0v1460h788v-155h-633v-457h586v-156h-586v-692h-155z" />
<glyph unicode="G" d="M143 375v712q0 42 11 88.5t40.5 101t74 97t119.5 71t169 28.5q91 0 164.5 -27.5t118.5 -69t75.5 -95t42 -102.5t11.5 -94h-158q0 57 -19 101t-46.5 68t-64 39t-66 19.5t-58.5 4.5q-30 0 -59.5 -4.5t-67 -19.5t-65.5 -39.5t-47 -68.5t-19 -102v-708q0 -59 19 -103.5 t47 -69t65.5 -39.5t67 -19.5t59.5 -4.5q29 0 58 4.5t66 19.5t64.5 39.5t46.5 69t19 103.5v274h-301v156h459v-432q0 -43 -11.5 -90.5t-41.5 -102.5t-75 -98t-120 -71.5t-168 -28.5q-92 0 -166 29t-118 72t-74 98t-41 103t-11 91z" />
<glyph unicode="H" horiz-adv-x="1181" d="M164 0v1460h158v-616h538v616h158v-1460h-158v688h-538v-688h-158z" />
<glyph unicode="I" horiz-adv-x="485" d="M164 0v1460h158v-1460h-158z" />
<glyph unicode="J" horiz-adv-x="937" d="M41 367h156q0 -68 20.5 -116.5t55 -71.5t68.5 -32.5t73 -9.5q31 0 58.5 5t57.5 20t51 38.5t34.5 64t13.5 93.5v947h-436v155h591v-1089q0 -184 -97.5 -286.5t-274.5 -102.5q-172 0 -271.5 106t-99.5 279z" />
<glyph unicode="K" horiz-adv-x="1073" d="M164 0v1460h158v-694l491 694h180l-458 -653l487 -807h-180l-398 672l-122 -183v-489h-158z" />
<glyph unicode="L" horiz-adv-x="980" d="M164 0v1460h155v-1306h631v-154h-786z" />
<glyph unicode="M" horiz-adv-x="1361" d="M164 0v1460h196l320 -774l317 774h201v-1460h-158v1165l-292 -716h-134l-292 716v-1165h-158z" />
<glyph unicode="N" horiz-adv-x="1163" d="M164 0v1460h186l494 -1163v1163h155v-1460h-190l-487 1147v-1147h-158z" />
<glyph unicode="O" d="M143 375v712q0 42 11 88.5t40.5 101t74 97t119.5 71t169 28.5q91 0 165 -28.5t118.5 -71.5t75 -97t42 -101.5t11.5 -89.5v-712q0 -43 -11 -90.5t-40.5 -102.5t-74.5 -98t-119.5 -71.5t-168.5 -28.5q-92 0 -166 29t-118.5 72t-74.5 98t-41.5 103t-11.5 91zM299 375 q0 -59 19 -104t47 -69.5t65.5 -40t67 -20t59.5 -4.5q29 0 58.5 4.5t66 20t64 40t46.5 69.5t19 104v708q0 58 -19 103t-46.5 69t-64 39.5t-66 20t-58.5 4.5q-30 0 -59.5 -4.5t-67 -20t-65.5 -40t-47 -69t-19 -102.5v-708z" />
<glyph unicode="P" horiz-adv-x="1081" d="M164 0v1460h432q68 0 125.5 -15t97 -39.5t70.5 -58.5t49.5 -69t30 -74t16 -70.5t4.5 -60.5v-106q0 -44 -8.5 -90.5t-34.5 -102.5t-66.5 -98.5t-112 -71.5t-163.5 -29h-282v-575h-158zM322 731h274q30 0 58 4.5t62.5 20t59 40t41.5 69.5t17 104v100q0 59 -17.5 103.5 t-42.5 69t-60 39.5t-63.5 19.5t-58.5 4.5h-270v-574z" />
<glyph unicode="Q" d="M143 375v712q0 42 11 88.5t40.5 101t74 97t119.5 71t169 28.5q91 0 165 -28.5t118.5 -71.5t75 -97t42 -101.5t11.5 -89.5v-712q0 -41 -8.5 -84.5t-32 -95t-60 -93t-99 -73.5t-142.5 -41v-203h-146v205q-71 12 -130 45.5t-96.5 75.5t-63.5 91.5t-37 93.5t-11 81zM299 375 q0 -108 53.5 -162.5t128.5 -67.5v275h146v-277q76 13 130 68t54 164v708q0 58 -19 103t-46.5 69t-64 39.5t-66 20t-58.5 4.5q-30 0 -59.5 -4.5t-67 -20t-65.5 -40t-47 -69t-19 -102.5v-708z" />
<glyph unicode="R" horiz-adv-x="1132" d="M164 0v1460h432q68 0 125.5 -15t97.5 -39.5t71 -58t49.5 -68.5t30.5 -73.5t16.5 -70t4.5 -60.5v-69q0 -47 -12 -97t-39 -106.5t-82 -103t-131 -68.5l299 -631h-178l-287 616h-239v-616h-158zM322 770h274q30 0 58.5 5t62.5 20.5t58.5 40t41.5 69t17 103.5v61 q0 59 -17.5 103.5t-42.5 69t-60 39.5t-63.5 19.5t-58.5 4.5h-270v-535z" />
<glyph unicode="S" horiz-adv-x="1071" d="M104 367h156q0 -107 74 -169.5t192 -62.5q129 0 207 67.5t78 174.5q0 142 -143 227q-59 34 -174 93t-170 89q-88 47 -141.5 132t-53.5 188q0 162 112 265.5t289 103.5q184 0 300 -108.5t116 -276.5h-158q0 109 -72 170t-186 61q-107 0 -176 -58t-69 -161q0 -125 129 -191 q216 -107 327 -168q110 -60 168 -154.5t58 -215.5q0 -168 -127 -280.5t-312 -112.5q-190 0 -307 111t-117 276z" />
<glyph unicode="T" horiz-adv-x="976" d="M53 1303v157h871v-157h-357v-1303h-157v1303h-357z" />
<glyph unicode="U" horiz-adv-x="1114" d="M143 375v1085h158v-1085q0 -59 19 -104t47 -69.5t65 -40t66.5 -20t58.5 -4.5q30 0 59.5 4.5t66.5 20t64.5 40t46.5 69.5t19 104v1085h158v-1087q0 -45 -10.5 -93.5t-40 -103t-73.5 -96.5t-119 -70t-169 -28q-95 0 -170.5 28t-120 70.5t-74 97.5t-40.5 103.5t-11 93.5z " />
<glyph unicode="V" horiz-adv-x="1091" d="M53 1460h156l326 -1310h26l322 1310h155l-362 -1460h-256z" />
<glyph unicode="W" horiz-adv-x="1626" d="M53 1460h160l240 -1214l284 1212h152l280 -1210l242 1212h162l-305 -1460h-191l-264 1126l-266 -1126h-191z" />
<glyph unicode="X" horiz-adv-x="1038" d="M53 0l377 733l-375 727h176l285 -573l291 573h174l-377 -725l381 -735h-180l-287 578l-285 -578h-180z" />
<glyph unicode="Y" horiz-adv-x="1032" d="M53 1460h170l293 -733l293 733h170l-385 -934v-526h-158v530z" />
<glyph unicode="Z" horiz-adv-x="937" d="M61 0v143l611 1162h-582v155h754v-137l-611 -1169h644v-154h-816z" />
<glyph unicode="[" horiz-adv-x="647" d="M164 -166v1729h319v-142h-174v-1444h174v-143h-319z" />
<glyph unicode="\" horiz-adv-x="1030" d="M164 1548h153l541 -1659h-149z" />
<glyph unicode="]" horiz-adv-x="647" d="M164 -23h174v1444h-174v142h319v-1729h-319v143z" />
<glyph unicode="^" horiz-adv-x="1038" d="M164 852l291 541h135l284 -541h-161l-193 358l-190 -358h-166z" />
<glyph unicode="_" horiz-adv-x="1067" d="M-8 -188h1083v-134h-1083v134z" />
<glyph unicode="`" horiz-adv-x="671" d="M164 1495h180l164 -334h-146z" />
<glyph unicode="a" horiz-adv-x="1069" d="M115 332q0 146 95.5 225.5t248.5 79.5h299v102q0 111 -58.5 157t-162.5 46q-97 0 -160.5 -48t-67.5 -151h-153q3 91 39.5 162t93 110.5t119.5 59t127 19.5q57 0 110 -11t102.5 -37.5t85.5 -66t58 -99.5t22 -135v-745h-155v102q-35 -53 -115 -86.5t-170 -33.5 q-68 0 -130.5 20.5t-114 61.5t-82.5 110t-31 158zM268 332q0 -197 230 -197q103 0 181.5 63.5t78.5 168.5v125h-295q-195 0 -195 -160z" />
<glyph unicode="b" horiz-adv-x="1095" d="M164 0v1460h153v-473q35 47 103.5 77t138.5 30q182 0 287.5 -103.5t105.5 -283.5v-338q0 -177 -107 -283t-286 -106q-68 0 -139 30t-103 74v-84h-153zM317 369q0 -45 10 -82.5t35 -74.5t75 -58t122 -21q112 0 176 63t64 173v338q0 36 -6 67t-22 62.5t-42 54t-69.5 37 t-100.5 14.5q-116 0 -179 -61.5t-63 -173.5v-338z" />
<glyph unicode="c" horiz-adv-x="1050" d="M143 369v338q0 176 111.5 281.5t292.5 105.5q174 0 281.5 -100.5t117.5 -274.5h-155q-3 43 -17 80t-41.5 70.5t-75 53t-110.5 19.5q-116 0 -182 -61.5t-66 -173.5v-338q0 -44 11.5 -82.5t37.5 -74.5t77 -57.5t122 -21.5q105 0 169.5 57.5t74.5 161.5h155 q-13 -170 -121.5 -271t-277.5 -101q-184 0 -294 105t-110 284z" />
<glyph unicode="d" horiz-adv-x="1099" d="M143 369v338q0 179 107 283t289 104q73 0 138.5 -28t102.5 -79v473h156v-1460h-156v84q-30 -45 -101 -74.5t-140 -29.5q-179 0 -287.5 106t-108.5 283zM299 369q0 -111 63 -173.5t177 -62.5q71 0 121 21t74.5 58t35 75t10.5 82v338q0 112 -63.5 173.5t-177.5 61.5 q-57 0 -100.5 -14.5t-69.5 -37t-42 -54t-22 -62.5t-6 -67v-338z" />
<glyph unicode="e" horiz-adv-x="1081" d="M143 369v338q0 176 111.5 281.5t292.5 105.5q183 0 292 -104t109 -283v-218h-649v-120q0 -44 11.5 -82.5t37.5 -74.5t77 -57.5t122 -21.5q105 0 169.5 57.5t74.5 161.5h155q-13 -170 -121.5 -271t-277.5 -101q-184 0 -294 105t-110 284zM299 641h494v66q0 35 -6.5 66.5 t-23.5 63t-44 54.5t-71 37t-101 14q-116 0 -182 -61.5t-66 -173.5v-66z" />
<glyph unicode="f" horiz-adv-x="679" d="M43 922v153h186v80q0 144 72.5 224.5t216.5 80.5h96v-151h-114q-46 0 -81.5 -30.5t-35.5 -98.5v-105h254v-153h-254v-922h-154v922h-186z" />
<glyph unicode="g" horiz-adv-x="1097" d="M143 369v338q0 177 109 282t289 105q69 0 138 -28.5t99 -72.5v84h156v-1163q0 -106 -32.5 -182.5t-89.5 -117.5t-123.5 -59t-147.5 -18q-152 0 -256.5 84.5t-122.5 231.5h155q15 -78 74 -120t150 -42q49 0 84.5 7t73.5 28t58.5 68.5t20.5 119.5v170q-31 -48 -98.5 -76 t-138.5 -28q-183 0 -290.5 104.5t-107.5 284.5zM299 369q0 -44 10.5 -82t35.5 -75t75 -58t121 -21q112 0 174.5 62.5t62.5 173.5v338q0 235 -237 235q-114 0 -178 -61.5t-64 -173.5v-338z" />
<glyph unicode="h" horiz-adv-x="1110" d="M164 0v1460h153v-485q38 54 114 86.5t149 32.5q182 0 278 -101.5t96 -285.5v-707h-153v707q0 37 -3.5 65.5t-17 62t-36.5 55.5t-65 37t-99 15q-110 0 -186.5 -65t-76.5 -166v-711h-153z" />
<glyph unicode="i" horiz-adv-x="516" d="M164 1253v222h188v-222h-188zM182 0v1077h154v-1077h-154z" />
<glyph unicode="j" horiz-adv-x="497" d="M0 -309h49q113 0 113 116v1270h155v-1259q0 -143 -72 -212t-186 -69h-59v154zM147 1253v222h187v-222h-187z" />
<glyph unicode="k" horiz-adv-x="1046" d="M164 0v1475h155v-918l472 520h202l-415 -452l407 -625h-182l-326 512l-158 -172v-340h-155z" />
<glyph unicode="l" horiz-adv-x="516" d="M156 279v1196h155v-1205q0 -118 113 -118h49v-152h-59q-114 0 -186 69t-72 210z" />
<glyph unicode="m" horiz-adv-x="1538" d="M164 0v1079h155v-86q41 50 105 75.5t133 25.5q156 0 229 -133q102 133 297 133q63 0 115 -19t85.5 -50.5t56 -73t32.5 -83.5t10 -86v-782h-153v768q0 76 -37.5 125t-118.5 49q-223 0 -223 -258v-684h-154v762q0 75 -38.5 127.5t-112.5 52.5q-226 0 -226 -260v-682h-155z " />
<glyph unicode="n" horiz-adv-x="1110" d="M164 0v1075h153v-98q38 54 113 85.5t150 31.5q181 0 277.5 -102t96.5 -285v-707h-153v707q0 37 -3.5 65.5t-17 62t-36.5 55.5t-65 37t-99 15q-110 0 -186.5 -65t-76.5 -166v-711h-153z" />
<glyph unicode="o" horiz-adv-x="1091" d="M143 369v338q0 176 111.5 281.5t292.5 105.5q183 0 292 -104t109 -283v-338q0 -176 -111 -282.5t-290 -106.5q-184 0 -294 105t-110 284zM299 369q0 -44 11.5 -82.5t37.5 -74.5t77 -57.5t122 -21.5q114 0 180 63t66 173v338q0 35 -6.5 66.5t-23.5 63t-44 54.5t-71 37 t-101 14q-116 0 -182 -61.5t-66 -173.5v-338z" />
<glyph unicode="p" horiz-adv-x="1097" d="M164 -463v1540h153v-82q93 99 242 99q180 0 287.5 -105t107.5 -282v-338q0 -180 -106 -284.5t-289 -104.5q-69 0 -139.5 29.5t-102.5 74.5v-547h-153zM317 369q0 -110 64 -173t178 -63q71 0 121 21t75 58t35.5 75t10.5 82v338q0 112 -64 173.5t-178 61.5 q-71 0 -121 -20.5t-75 -56.5t-35.5 -74.5t-10.5 -83.5v-338z" />
<glyph unicode="q" horiz-adv-x="1097" d="M143 369v338q0 177 109 282t289 105q67 0 136 -29.5t101 -73.5v86h156v-1540h-156v547q-33 -46 -100.5 -75t-136.5 -29q-183 0 -290.5 104.5t-107.5 284.5zM299 369q0 -44 10.5 -82t35.5 -75t75 -58t121 -21q112 0 174.5 62.5t62.5 173.5v338q0 235 -237 235 q-114 0 -178 -61.5t-64 -173.5v-338z" />
<glyph unicode="r" horiz-adv-x="659" d="M164 0v1075h153v-98q37 45 91 71.5t102 26.5h86v-153h-88q-73 0 -132 -59t-59 -179v-684h-153z" />
<glyph unicode="s" horiz-adv-x="1007" d="M104 352h154q0 -104 65.5 -159.5t178.5 -55.5q248 0 248 182q0 95 -121 130q-26 6 -273 65q-102 24 -168.5 96t-66.5 170q0 81 30 142.5t83 97.5t119 54t143 18q172 0 280.5 -92.5t114.5 -256.5h-156q-6 94 -67 145.5t-176 51.5q-218 0 -218 -160q0 -42 33 -75.5 t86 -45.5q243 -56 285 -69q102 -31 163.5 -100t61.5 -171q0 -89 -32 -155.5t-88.5 -104.5t-126.5 -56.5t-154 -18.5q-177 0 -287.5 99t-110.5 269z" />
<glyph unicode="t" horiz-adv-x="735" d="M43 922v153h205v385h153v-385h236v-153h-236v-652q0 -63 31.5 -90.5t81.5 -27.5h127v-152h-135q-115 0 -186.5 68.5t-71.5 210.5v643h-205z" />
<glyph unicode="u" horiz-adv-x="1116" d="M156 369v708h155v-708q0 -44 10.5 -82t35.5 -74t75 -57t121 -21q108 0 176 60.5t68 162.5v719h155v-1077h-155v84q-36 -46 -104.5 -74t-139.5 -28q-183 0 -290 104.5t-107 282.5z" />
<glyph unicode="v" horiz-adv-x="933" d="M43 1077h162l256 -930h12l258 930h160l-303 -1077h-242z" />
<glyph unicode="w" horiz-adv-x="1425" d="M84 1077h160l188 -841l207 841h147l207 -844l189 844h159l-251 -1077h-183l-194 797l-195 -797h-180z" />
<glyph unicode="x" horiz-adv-x="954" d="M43 0l344 539l-344 538h180l254 -411l252 411h178l-344 -540l348 -537h-184l-248 403l-258 -403h-178z" />
<glyph unicode="y" horiz-adv-x="921" d="M43 1077h162l254 -930h12l246 930h162l-342 -1282q-22 -83 -52 -135t-74 -78.5t-90.5 -35.5t-115.5 -9h-74v154h98q63 0 98.5 23t53.5 87l53 199h-90z" />
<glyph unicode="z" horiz-adv-x="919" d="M84 0v139l528 783h-510v153h691v-139l-531 -784h574v-152h-752z" />
<glyph unicode="{" horiz-adv-x="643" d="M164 106v1215q0 128 57 186t189 58h69v-142h-59q-28 0 -47 -2t-31.5 -9t-19 -13t-9.5 -22.5t-3.5 -27.5t-0.5 -38v-13v-1177v-13q0 -27 0.5 -38t3.5 -26t9.5 -20t19.5 -11t31 -7.5t47 -1.5h59v-143h-69q-132 0 -189 58t-57 187z" />
<glyph unicode="|" horiz-adv-x="473" d="M164 -113v1665h145v-1665h-145z" />
<glyph unicode="}" horiz-adv-x="651" d="M164 2h78q20 0 33.5 0.5t25 4t18 5t11.5 11t7 13.5t3.5 21.5t1.5 25.5v34v1186q0 33 -0.5 46.5t-4 31t-9.5 22t-20 10.5t-31.5 7t-47.5 1h-65v142h74q134 0 191.5 -57.5t57.5 -186.5v-1215q0 -130 -56 -187.5t-193 -57.5h-74v143z" />
<glyph unicode="~" horiz-adv-x="1118" d="M164 535q81 83 132 110t112 27q54 0 150.5 -47t152.5 -47q34 0 62 15t77 66l104 -81q-86 -83 -135.5 -109.5t-111.5 -26.5q-52 0 -150 46.5t-154 46.5q-35 0 -63 -15.5t-78 -66.5z" />
<glyph unicode="&#xa1;" horiz-adv-x="536" d="M164 901v209h209v-209h-209zM195 -350v1089h153v-1089h-153z" />
<glyph unicode="&#xa2;" horiz-adv-x="1050" d="M143 369v338q0 157 89 259t241 124v280h145v-280q143 -19 230.5 -116.5t97.5 -254.5h-153q-4 43 -18 80t-41 70.5t-75 53t-112 19.5q-118 0 -184 -61.5t-66 -173.5v-338q0 -44 11.5 -82.5t37.5 -74.5t77.5 -57.5t123.5 -21.5q103 0 168.5 57.5t75.5 161.5h155 q-10 -153 -97.5 -250.5t-230.5 -117.5v-279h-145v279q-157 19 -243.5 120t-86.5 265z" />
<glyph unicode="&#xa3;" horiz-adv-x="1062" d="M104 700v156h76v227q0 171 105 278t280 107q167 0 277 -109.5t116 -281.5h-155q-2 58 -20 102.5t-43 69.5t-58 40.5t-61.5 20.5t-57.5 5q-40 0 -76 -10t-71.5 -33.5t-56.5 -71t-21 -113.5v-231h436v-156h-436v-546h618v-154h-776v700h-76z" />
<glyph unicode="&#xa5;" horiz-adv-x="1087" d="M84 1460h166l293 -733l295 733h166l-332 -807h231v-145h-282v-148h282v-147h-282v-213h-156v213h-281v147h281q0 23 -1 72t-1 76h-279v145h228z" />
<glyph unicode="&#xa6;" horiz-adv-x="471" d="M160 -55v651h155v-651h-155zM160 844v649h155v-649h-155z" />
<glyph unicode="&#xa7;" horiz-adv-x="1140" d="M164 328h153q0 -92 65.5 -141.5t178.5 -49.5q252 0 252 182q0 52 -31.5 85.5t-81.5 44.5q-51 11 -155.5 34t-155.5 35q-92 19 -151.5 90t-59.5 172q0 120 64 193q-52 68 -52 162q0 107 54 179.5t136.5 103t186.5 30.5q177 0 285.5 -91t108.5 -253h-152q0 91 -62.5 141.5 t-183.5 50.5q-43 0 -80.5 -7.5t-71.5 -24.5t-53.5 -50t-19.5 -79q0 -42 29 -75.5t79 -43.5l299 -66q104 -26 168 -98t64 -176q0 -128 -59 -201q45 -59 45 -156q0 -89 -32 -155.5t-89 -104.5t-127 -56.5t-154 -18.5q-177 0 -287 92t-110 252zM324 780q0 -43 29 -75.5 t79 -42.5l301 -68q33 -9 66 -23q28 39 28 105q0 52 -31 85t-81 44q-306 69 -355 80q-36 -45 -36 -105z" />
<glyph unicode="&#xa8;" horiz-adv-x="935" d="M164 1233v223h188v-223h-188zM584 1233v223h188v-223h-188z" />
<glyph unicode="&#xa9;" horiz-adv-x="1775" d="M164 713q0 197 97 364t264 264t364 97q196 0 362.5 -97t263.5 -264t97 -364q0 -196 -97 -363t-263.5 -264.5t-362.5 -97.5q-197 0 -364 97.5t-264 264.5t-97 363zM307 713q0 -118 46.5 -226t124.5 -185.5t185.5 -123t225.5 -45.5q117 0 223.5 45.5t184 123t123.5 185 t46 226.5q0 158 -77.5 292t-210.5 211.5t-289 77.5q-157 0 -291 -77t-212.5 -211t-78.5 -293zM639 522v381q0 26 5 53t21 60.5t41 58.5t68.5 42.5t99.5 17.5q69 0 119 -25.5t73.5 -65t33.5 -75t10 -68.5h-137q0 56 -30.5 77t-68.5 21t-69 -21.5t-31 -78.5v-375 q0 -57 31 -79.5t69 -22.5t68.5 22t30.5 78h137q0 -34 -10 -70t-34 -76t-74.5 -65.5t-121.5 -25.5q-56 0 -99 17.5t-67 43.5t-39.5 60t-20.5 62t-5 54z" />
<glyph unicode="&#xaa;" horiz-adv-x="856" d="M156 932q0 101 65.5 157t171.5 56h172v47q0 111 -123 111q-55 0 -91 -33t-36 -103h-135q0 69 24.5 123t64 84.5t83.5 46t88 15.5q108 0 184 -58.5t76 -181.5v-491h-135v53q-24 -30 -66.5 -48t-84.5 -18q-115 0 -186.5 59t-71.5 181zM289 932q0 -107 127 -107q59 0 104 35 t45 94v64h-170q-106 0 -106 -86z" />
<glyph unicode="&#xab;" horiz-adv-x="1009" d="M61 541l410 409v-202l-207 -207l207 -207v-201zM459 541l407 409v-205l-204 -204l204 -205v-203z" />
<glyph unicode="&#xac;" horiz-adv-x="1155" d="M156 680v151h843v-487h-155v336h-688z" />
<glyph unicode="&#xad;" horiz-adv-x="935" d="M164 506v145h608v-145h-608z" />
<glyph unicode="&#xae;" horiz-adv-x="1775" d="M164 713q0 197 97 364t264 264t364 97q196 0 362.5 -97t263.5 -264t97 -364q0 -196 -97 -363t-263.5 -264.5t-362.5 -97.5q-197 0 -364 97.5t-264 264.5t-97 363zM307 713q0 -118 46.5 -226t124.5 -185.5t185.5 -123t225.5 -45.5q117 0 223.5 45.5t184 123t123.5 185 t46 226.5t-46 227t-123.5 185.5t-184 123t-223.5 45.5q-157 0 -291 -77t-212.5 -211t-78.5 -293zM664 291v825h256q56 0 99.5 -17t68 -42.5t40 -58.5t20.5 -60t5 -53v-47q0 -27 -6.5 -56.5t-22.5 -64.5t-50.5 -63t-82.5 -40l164 -323h-151l-158 315h-49v-315h-133zM797 737 h125q38 0 68 22t30 79v43q0 57 -31 79.5t-69 22.5h-123v-246z" />
<glyph unicode="&#xaf;" horiz-adv-x="952" d="M164 1200v146h624v-146h-624z" />
<glyph unicode="&#xb0;" horiz-adv-x="700" d="M94 1206q0 106 75 181t179 75q107 0 182.5 -74.5t75.5 -181.5q0 -105 -75.5 -180.5t-182.5 -75.5q-104 0 -179 76t-75 180zM217 1206q0 -54 38.5 -91.5t92.5 -37.5q56 0 94.5 37.5t38.5 91.5q0 55 -38.5 93t-94.5 38q-54 0 -92.5 -38t-38.5 -93z" />
<glyph unicode="&#xb1;" horiz-adv-x="1161" d="M156 0v145h850v-145h-850zM156 506v145h352v320h147v-320h351v-145h-351v-285h-147v285h-352z" />
<glyph unicode="&#xb2;" horiz-adv-x="768" d="M156 705v165q0 56 27 98t77 83q23 18 87 56t97 67q35 32 35 69q0 43 -24.5 66.5t-67.5 23.5q-41 0 -67.5 -32.5t-26.5 -90.5h-137q0 112 65.5 185t165.5 73q101 0 163 -61.5t62 -161.5q0 -103 -77 -170q-30 -27 -98.5 -67t-98.5 -64q-45 -38 -45 -80v-22h317v-137h-454z " />
<glyph unicode="&#xb3;" horiz-adv-x="761" d="M156 954h135q0 -69 28.5 -96t61.5 -27q14 0 27.5 3t29.5 11t25.5 26t9.5 44v48q0 25 -10 42.5t-26 25t-29 10.5t-27 3h-72v99l115 180h-240v135h410v-115l-119 -180q131 -42 131 -198v-50q0 -32 -11 -66.5t-34 -71t-69.5 -60t-108.5 -23.5q-64 0 -111.5 26t-71 67.5 t-34 83t-10.5 83.5z" />
<glyph unicode="&#xb4;" horiz-adv-x="669" d="M164 1161l162 334h180l-201 -334h-141z" />
<glyph unicode="&#xb5;" horiz-adv-x="1122" d="M164 -379v1456h153v-708q0 -44 10.5 -82t35.5 -74t75.5 -57t122.5 -21q107 0 175.5 61t68.5 162v719h153v-1077h-153v84q-36 -46 -104.5 -74t-139.5 -28q-68 0 -140 26t-104 62v-449h-153z" />
<glyph unicode="&#xb6;" horiz-adv-x="1142" d="M164 1106q0 173 97 259.5t276 86.5h442v-1452h-154v1300h-155v-1300h-154v782q-159 4 -255.5 96.5t-96.5 227.5z" />
<glyph unicode="&#xb7;" horiz-adv-x="544" d="M164 436v219h217v-219h-217z" />
<glyph unicode="&#xb8;" horiz-adv-x="626" d="M164 -362l153 325h146l-127 -325h-172z" />
<glyph unicode="&#xb9;" horiz-adv-x="731" d="M156 705v135h141v481l-104 -10v133l237 22v-626h145v-135h-419z" />
<glyph unicode="&#xba;" horiz-adv-x="860" d="M156 954v215q0 121 75 193t197 72q125 0 201 -71.5t76 -193.5v-215q0 -122 -76.5 -194t-200.5 -72q-125 0 -198.5 71t-73.5 195zM289 954q0 -56 31 -94.5t108 -38.5q65 0 102 35t37 98v215q0 54 -31 92.5t-108 38.5q-65 0 -102 -34.5t-37 -96.5v-215z" />
<glyph unicode="&#xbb;" horiz-adv-x="1007" d="M143 135v201l207 207l-207 205v204l406 -409zM541 135v201l204 207l-204 205v204l405 -409z" />
<glyph unicode="&#xbc;" horiz-adv-x="1476" d="M156 705v135h141v481l-104 -10v133l239 22v-626h143v-135h-419zM406 -106l544 1660h144l-543 -1660h-145zM883 195v108l168 453h135l-156 -426h156v258h135v-588h-135v195h-303z" />
<glyph unicode="&#xbd;" horiz-adv-x="1540" d="M156 705v135h139v481l-102 -8v131l237 22v-626h145v-135h-419zM403 -106l545 1660h144l-541 -1660h-148zM928 0v164q0 108 102 182q11 8 76.5 46.5t104 73.5t38.5 71q0 43 -24 66.5t-68 23.5q-40 0 -66 -32.5t-26 -90.5h-137q0 113 65 185.5t164 72.5q101 0 164 -61.5 t63 -161.5q0 -103 -77 -170q-50 -39 -101 -64q-65 -36 -103 -70.5t-38 -76.5v-21h317v-137h-454z" />
<glyph unicode="&#xbe;" horiz-adv-x="1497" d="M156 954h135q0 -69 28.5 -96t61.5 -27q14 0 27.5 3t29.5 11t25.5 26t9.5 44v48q0 25 -10 42.5t-26 25t-29 10.5t-27 3h-72v99l115 180h-238v135h408v-115l-119 -180q133 -43 133 -198v-50q0 -31 -11 -66t-35 -71.5t-70.5 -60t-108.5 -23.5q-64 0 -111.5 26t-71 67.5 t-34 83t-10.5 83.5zM424 -106l547 1660h141l-541 -1660h-147zM901 195v108l168 453h137l-155 -426h155v258h135v-588h-135v195h-305z" />
<glyph unicode="&#xbf;" horiz-adv-x="884" d="M51 20q0 133 92 232q32 36 116.5 103t117.5 104q53 53 53 162v96h156v-90q0 -161 -92 -265q-35 -37 -115 -98t-115 -100q-57 -64 -57 -141q0 -121 66 -186.5t188 -65.5q30 0 58.5 4.5t64.5 20.5t63 41.5t47 73t23 109.5h157q0 -46 -11.5 -96.5t-41.5 -106t-75 -99.5 t-119 -72.5t-166 -28.5q-183 0 -296.5 111.5t-113.5 291.5zM399 879v211h211v-211h-211z" />
<glyph unicode="&#xc0;" horiz-adv-x="1126" d="M51 0l381 1460h256l387 -1460h-155l-107 412h-494l-110 -412h-158zM324 1933h180l164 -334h-146zM356 565h416l-194 750h-27z" />
<glyph unicode="&#xc1;" horiz-adv-x="1126" d="M51 0l381 1460h256l387 -1460h-155l-107 412h-494l-110 -412h-158zM356 565h416l-194 750h-27zM461 1599l162 334h180l-201 -334h-141z" />
<glyph unicode="&#xc2;" horiz-adv-x="1126" d="M51 0l381 1460h256l387 -1460h-155l-107 412h-494l-110 -412h-158zM266 1624l234 291h131l231 -291h-153l-144 150l-143 -150h-156zM356 565h416l-194 750h-27z" />
<glyph unicode="&#xc3;" horiz-adv-x="1126" d="M51 0l381 1460h256l387 -1460h-155l-107 412h-494l-110 -412h-158zM229 1712q71 70 118.5 93.5t90.5 23.5q45 0 125 -44t125 -44q46 0 115 67l96 -94q-71 -68 -119 -91.5t-90 -23.5q-46 0 -125 44.5t-125 44.5q-22 0 -45 -12.5t-69 -55.5zM356 565h416l-194 750h-27z" />
<glyph unicode="&#xc4;" horiz-adv-x="1126" d="M51 0l381 1460h256l387 -1460h-155l-107 412h-494l-110 -412h-158zM260 1624v223h189v-223h-189zM356 565h416l-194 750h-27zM680 1624v223h188v-223h-188z" />
<glyph unicode="&#xc5;" horiz-adv-x="1126" d="M51 0l381 1460h256l387 -1460h-155l-107 412h-494l-110 -412h-158zM346 1772q0 91 64 155t153 64q92 0 156.5 -63.5t64.5 -155.5q0 -89 -65 -154.5t-156 -65.5q-89 0 -153 66t-64 154zM356 565h416l-194 750h-27zM457 1772q0 -43 31.5 -75t74.5 -32q44 0 77.5 32t33.5 75 q0 44 -33 76t-78 32q-43 0 -74.5 -32t-31.5 -76z" />
<glyph unicode="&#xc6;" horiz-adv-x="1615" d="M51 0l381 1460h1081v-155h-632v-455h583v-156h-583v-540h632v-154h-788v412h-410l-108 -412h-156zM354 567h371v738h-176z" />
<glyph unicode="&#xc7;" horiz-adv-x="1067" d="M133 375v712q0 42 11 88.5t40.5 101t74 97t119.5 71t169 28.5q91 0 164.5 -28.5t118.5 -71.5t75 -97t41.5 -101.5t11.5 -89.5h-157q0 58 -19 102t-46.5 68.5t-64 39.5t-66 19.5t-58.5 4.5q-30 0 -59.5 -4.5t-67 -20t-65.5 -40t-47 -69t-19 -102.5v-708q0 -59 19 -104 t47 -69.5t65.5 -40t67 -20t59.5 -4.5q29 0 58.5 4.5t66 20t64 39.5t46.5 69t19 103h157q0 -43 -11 -90.5t-40.5 -102.5t-74 -98t-119 -71.5t-168.5 -28.5q-92 0 -166 29t-118.5 72t-74.5 98t-41.5 103t-11.5 91zM342 -418l154 326h145l-127 -326h-172z" />
<glyph unicode="&#xc8;" horiz-adv-x="1054" d="M164 0v1460h788v-155h-633v-455h586v-156h-586v-540h633v-154h-788zM362 1933h181l164 -334h-146z" />
<glyph unicode="&#xc9;" horiz-adv-x="1054" d="M164 0v1460h788v-155h-633v-455h586v-156h-586v-540h633v-154h-788zM418 1599l162 334h180l-201 -334h-141z" />
<glyph unicode="&#xca;" horiz-adv-x="1054" d="M164 0v1460h788v-155h-633v-455h586v-156h-586v-540h633v-154h-788zM244 1624l233 291h131l232 -291h-154l-143 150l-144 -150h-155z" />
<glyph unicode="&#xcb;" horiz-adv-x="1054" d="M164 0v1460h788v-155h-633v-455h586v-156h-586v-540h633v-154h-788zM240 1624v223h188v-223h-188zM659 1624v223h189v-223h-189z" />
<glyph unicode="&#xcc;" horiz-adv-x="487" d="M-20 1933h180l164 -334h-146zM166 0v1460h158v-1460h-158z" />
<glyph unicode="&#xcd;" horiz-adv-x="487" d="M166 0v1460h158v-1460h-158zM166 1599l162 334h180l-201 -334h-141z" />
<glyph unicode="&#xce;" horiz-adv-x="485" d="M-59 1624l233 291h131l232 -291h-154l-143 150l-144 -150h-155zM164 0v1460h158v-1460h-158z" />
<glyph unicode="&#xcf;" horiz-adv-x="485" d="M-61 1624v223h188v-223h-188zM164 0v1460h158v-1460h-158zM358 1624v223h189v-223h-189z" />
<glyph unicode="&#xd0;" horiz-adv-x="1288" d="M156 674v145h151v643h432q94 0 167 -28.5t114.5 -71t68 -98t35.5 -101t9 -88.5v-684q0 -35 -6.5 -73t-21.5 -84t-44 -86.5t-69.5 -74t-103.5 -53.5t-140 -20h-441v674h-151zM465 154h278q30 0 58 5t61 20.5t57.5 40.5t41 69.5t16.5 103.5v676q0 59 -17 104t-41.5 69.5 t-59 40t-62.5 20t-58 4.5h-274v-488h299v-145h-299v-520z" />
<glyph unicode="&#xd1;" horiz-adv-x="1163" d="M164 0v1460h186l494 -1163v1163h155v-1460h-190l-487 1147v-1147h-158zM250 1712q71 70 118.5 93.5t90.5 23.5q45 0 125 -44t125 -44t114 67l97 -94q-71 -68 -119 -91.5t-90 -23.5q-46 0 -125 44.5t-125 44.5q-23 0 -46 -12.5t-69 -55.5z" />
<glyph unicode="&#xd2;" d="M143 375v712q0 42 11 88.5t40.5 101t74 97t119.5 71t169 28.5q91 0 165 -28.5t118.5 -71.5t75 -97t42 -101.5t11.5 -89.5v-712q0 -43 -11 -90.5t-40.5 -102.5t-74.5 -98t-119.5 -71.5t-168.5 -28.5q-92 0 -166 29t-118.5 72t-74.5 98t-41.5 103t-11.5 91zM299 375 q0 -59 19 -104t47 -69.5t65.5 -40t67 -20t59.5 -4.5q29 0 58.5 4.5t66 20t64 40t46.5 69.5t19 104v708q0 58 -19 103t-46.5 69t-64 39.5t-66 20t-58.5 4.5q-30 0 -59.5 -4.5t-67 -20t-65.5 -40t-47 -69t-19 -102.5v-708zM340 1933h180l164 -334h-145z" />
<glyph unicode="&#xd3;" d="M143 375v712q0 42 11 88.5t40.5 101t74 97t119.5 71t169 28.5q91 0 165 -28.5t118.5 -71.5t75 -97t42 -101.5t11.5 -89.5v-712q0 -43 -11 -90.5t-40.5 -102.5t-74.5 -98t-119.5 -71.5t-168.5 -28.5q-92 0 -166 29t-118.5 72t-74.5 98t-41.5 103t-11.5 91zM299 375 q0 -59 19 -104t47 -69.5t65.5 -40t67 -20t59.5 -4.5q29 0 58.5 4.5t66 20t64 40t46.5 69.5t19 104v708q0 58 -19 103t-46.5 69t-64 39.5t-66 20t-58.5 4.5q-30 0 -59.5 -4.5t-67 -20t-65.5 -40t-47 -69t-19 -102.5v-708zM426 1599l162 334h180l-201 -334h-141z" />
<glyph unicode="&#xd4;" d="M143 375v712q0 42 11 88.5t40.5 101t74 97t119.5 71t169 28.5q91 0 165 -28.5t118.5 -71.5t75 -97t42 -101.5t11.5 -89.5v-712q0 -43 -11 -90.5t-40.5 -102.5t-74.5 -98t-119.5 -71.5t-168.5 -28.5q-92 0 -166 29t-118.5 72t-74.5 98t-41.5 103t-11.5 91zM270 1622 l234 291h131l231 -291h-153l-144 150l-143 -150h-156zM299 375q0 -59 19 -104t47 -69.5t65.5 -40t67 -20t59.5 -4.5q29 0 58.5 4.5t66 20t64 40t46.5 69.5t19 104v708q0 58 -19 103t-46.5 69t-64 39.5t-66 20t-58.5 4.5q-30 0 -59.5 -4.5t-67 -20t-65.5 -40t-47 -69 t-19 -102.5v-708z" />
<glyph unicode="&#xd5;" d="M143 375v712q0 42 11 88.5t40.5 101t74 97t119.5 71t169 28.5q91 0 165 -28.5t118.5 -71.5t75 -97t42 -101.5t11.5 -89.5v-712q0 -43 -11 -90.5t-40.5 -102.5t-74.5 -98t-119.5 -71.5t-168.5 -28.5q-92 0 -166 29t-118.5 72t-74.5 98t-41.5 103t-11.5 91zM221 1712 q71 70 118.5 93.5t90.5 23.5q45 0 125 -44t125 -44q46 0 115 67l96 -94q-71 -68 -119 -91.5t-90 -23.5q-46 0 -125 44.5t-125 44.5q-23 0 -46 -12.5t-69 -55.5zM299 375q0 -59 19 -104t47 -69.5t65.5 -40t67 -20t59.5 -4.5q29 0 58.5 4.5t66 20t64 40t46.5 69.5t19 104v708 q0 58 -19 103t-46.5 69t-64 39.5t-66 20t-58.5 4.5q-30 0 -59.5 -4.5t-67 -20t-65.5 -40t-47 -69t-19 -102.5v-708z" />
<glyph unicode="&#xd6;" d="M143 375v712q0 42 11 88.5t40.5 101t74 97t119.5 71t169 28.5q91 0 165 -28.5t118.5 -71.5t75 -97t42 -101.5t11.5 -89.5v-712q0 -43 -11 -90.5t-40.5 -102.5t-74.5 -98t-119.5 -71.5t-168.5 -28.5q-92 0 -166 29t-118.5 72t-74.5 98t-41.5 103t-11.5 91zM244 1624v223 h188v-223h-188zM299 375q0 -59 19 -104t47 -69.5t65.5 -40t67 -20t59.5 -4.5q29 0 58.5 4.5t66 20t64 40t46.5 69.5t19 104v708q0 58 -19 103t-46.5 69t-64 39.5t-66 20t-58.5 4.5q-30 0 -59.5 -4.5t-67 -20t-65.5 -40t-47 -69t-19 -102.5v-708zM664 1624v223h188v-223h-188 z" />
<glyph unicode="&#xd7;" horiz-adv-x="1177" d="M223 285l266 266l-266 266l101 101l264 -267l266 267l100 -101l-266 -266l266 -266l-100 -99l-266 265l-264 -265z" />
<glyph unicode="&#xd8;" d="M143 375v712q0 42 11 88.5t40.5 101t74 97t119.5 71t169 28.5q90 0 160 -25l41 127h155l-69 -209q63 -58 94 -136.5t31 -144.5v-712q0 -43 -11 -90.5t-40.5 -102.5t-74.5 -98t-119.5 -71.5t-168.5 -28.5q-80 0 -154 24l-36 -112h-160l63 190q-59 60 -92 144t-33 147z M299 375q0 -76 23 -121q58 177 173 523t173 523q-58 19 -111 19q-30 0 -59.5 -4.5t-67 -20t-65.5 -40t-47 -69t-19 -102.5v-708zM449 152q51 -15 108 -15q29 0 58.5 4.5t66 20t64 40t46.5 69.5t19 104v708q0 46 -23 113q-40 -122 -107 -330t-123.5 -382t-108.5 -332z" />
<glyph unicode="&#xd9;" horiz-adv-x="1114" d="M143 375v1085h158v-1085q0 -59 19 -104t47 -69.5t65 -40t66.5 -20t58.5 -4.5q30 0 59.5 4.5t66.5 20t64.5 40t46.5 69.5t19 104v1085h158v-1087q0 -45 -10.5 -93.5t-40 -103t-73.5 -96.5t-119 -70t-169 -28q-95 0 -170.5 28t-120 70.5t-74 97.5t-40.5 103.5t-11 93.5z M344 1933h180l164 -334h-145z" />
<glyph unicode="&#xda;" horiz-adv-x="1114" d="M143 375v1085h158v-1085q0 -59 19 -104t47 -69.5t65 -40t66.5 -20t58.5 -4.5q30 0 59.5 4.5t66.5 20t64.5 40t46.5 69.5t19 104v1085h158v-1087q0 -45 -10.5 -93.5t-40 -103t-73.5 -96.5t-119 -70t-169 -28q-95 0 -170.5 28t-120 70.5t-74 97.5t-40.5 103.5t-11 93.5z M424 1599l162 334h180l-201 -334h-141z" />
<glyph unicode="&#xdb;" horiz-adv-x="1114" d="M143 375v1085h158v-1085q0 -59 19 -104t47 -69.5t65 -40t66.5 -20t58.5 -4.5q30 0 59.5 4.5t66.5 20t64.5 40t46.5 69.5t19 104v1085h158v-1087q0 -45 -10.5 -93.5t-40 -103t-73.5 -96.5t-119 -70t-169 -28q-95 0 -170.5 28t-120 70.5t-74 97.5t-40.5 103.5t-11 93.5z M260 1624l234 291h131l231 -291h-154l-143 150l-143 -150h-156z" />
<glyph unicode="&#xdc;" horiz-adv-x="1114" d="M143 375v1085h158v-1085q0 -59 19 -104t47 -69.5t65 -40t66.5 -20t58.5 -4.5q30 0 59.5 4.5t66.5 20t64.5 40t46.5 69.5t19 104v1085h158v-1087q0 -45 -10.5 -93.5t-40 -103t-73.5 -96.5t-119 -70t-169 -28q-95 0 -170.5 28t-120 70.5t-74 97.5t-40.5 103.5t-11 93.5z M260 1624v223h189v-223h-189zM680 1624v223h188v-223h-188z" />
<glyph unicode="&#xdd;" horiz-adv-x="1032" d="M53 1460h170l293 -733l293 733h170l-385 -934v-526h-158v530zM391 1597l162 334h180l-201 -334h-141z" />
<glyph unicode="&#xde;" horiz-adv-x="1161" d="M164 0v1460h158v-317h313q179 0 286 -111.5t107 -294.5q0 -187 -106 -298t-287 -111h-313v-328h-158zM322 485h313q45 0 84 11.5t75.5 38t58 78.5t21.5 124q0 116 -63.5 182t-175.5 66h-313v-500z" />
<glyph unicode="&#xdf;" horiz-adv-x="1128" d="M164 0v1085q0 43 9 88.5t35.5 100.5t68 97t114.5 70.5t166 28.5q92 0 164 -29t112.5 -71t67 -97.5t35 -101.5t8.5 -90q0 -78 -31 -151.5t-90 -112.5q51 -27 87.5 -69.5t53.5 -89t24 -85t7 -73.5v-109q0 -44 -8.5 -90.5t-35 -102.5t-67 -98t-112.5 -71t-164 -29h-127v154 h123q30 0 58 5t61 20.5t57.5 40t41 69t16.5 102.5v103q0 73 -21 123t-56 73t-68 32t-70 9h-70v154h68q82 0 123.5 50.5t41.5 143.5q0 72 -23 122.5t-61 74t-73 32.5t-72 9q-29 0 -57.5 -5t-62.5 -20.5t-59 -40t-42 -69t-17 -103.5v-1079h-155z" />
<glyph unicode="&#xe0;" horiz-adv-x="1069" d="M115 332q0 146 95.5 225.5t248.5 79.5h299v102q0 111 -58.5 157t-162.5 46q-97 0 -160.5 -48t-67.5 -151h-153q3 91 39.5 162t93 110.5t119.5 59t127 19.5q57 0 110 -11t102.5 -37.5t85.5 -66t58 -99.5t22 -135v-745h-155v102q-35 -53 -115 -86.5t-170 -33.5 q-68 0 -130.5 20.5t-114 61.5t-82.5 110t-31 158zM268 332q0 -197 230 -197q103 0 181.5 63.5t78.5 168.5v125h-295q-195 0 -195 -160zM319 1550h181l164 -333h-146z" />
<glyph unicode="&#xe1;" horiz-adv-x="1069" d="M115 332q0 146 95.5 225.5t248.5 79.5h299v102q0 111 -58.5 157t-162.5 46q-97 0 -160.5 -48t-67.5 -151h-153q3 91 39.5 162t93 110.5t119.5 59t127 19.5q57 0 110 -11t102.5 -37.5t85.5 -66t58 -99.5t22 -135v-745h-155v102q-35 -53 -115 -86.5t-170 -33.5 q-68 0 -130.5 20.5t-114 61.5t-82.5 110t-31 158zM268 332q0 -197 230 -197q103 0 181.5 63.5t78.5 168.5v125h-295q-195 0 -195 -160zM406 1217l161 333h181l-201 -333h-141z" />
<glyph unicode="&#xe2;" horiz-adv-x="1069" d="M115 332q0 146 95.5 225.5t248.5 79.5h299v102q0 111 -58.5 157t-162.5 46q-97 0 -160.5 -48t-67.5 -151h-153q3 91 39.5 162t93 110.5t119.5 59t127 19.5q57 0 110 -11t102.5 -37.5t85.5 -66t58 -99.5t22 -135v-745h-155v102q-35 -53 -115 -86.5t-170 -33.5 q-68 0 -130.5 20.5t-114 61.5t-82.5 110t-31 158zM244 1217l233 290h131l232 -290h-154l-143 149l-144 -149h-155zM268 332q0 -197 230 -197q103 0 181.5 63.5t78.5 168.5v125h-295q-195 0 -195 -160z" />
<glyph unicode="&#xe3;" horiz-adv-x="1069" d="M115 332q0 146 95.5 225.5t248.5 79.5h299v102q0 111 -58.5 157t-162.5 46q-97 0 -160.5 -48t-67.5 -151h-153q3 91 39.5 162t93 110.5t119.5 59t127 19.5q57 0 110 -11t102.5 -37.5t85.5 -66t58 -99.5t22 -135v-745h-155v102q-35 -53 -115 -86.5t-170 -33.5 q-68 0 -130.5 20.5t-114 61.5t-82.5 110t-31 158zM199 1391q71 70 118 93t91 23q45 0 124.5 -44t124.5 -44t115 68l96 -94q-71 -68 -119 -91.5t-90 -23.5q-46 0 -124.5 44t-124.5 44q-23 0 -46 -12.5t-69 -55.5zM268 332q0 -197 230 -197q103 0 181.5 63.5t78.5 168.5v125 h-295q-195 0 -195 -160z" />
<glyph unicode="&#xe4;" horiz-adv-x="1069" d="M115 332q0 146 95.5 225.5t248.5 79.5h299v102q0 111 -58.5 157t-162.5 46q-97 0 -160.5 -48t-67.5 -151h-153q3 91 39.5 162t93 110.5t119.5 59t127 19.5q57 0 110 -11t102.5 -37.5t85.5 -66t58 -99.5t22 -135v-745h-155v102q-35 -53 -115 -86.5t-170 -33.5 q-68 0 -130.5 20.5t-114 61.5t-82.5 110t-31 158zM231 1292v224h189v-224h-189zM268 332q0 -197 230 -197q103 0 181.5 63.5t78.5 168.5v125h-295q-195 0 -195 -160zM651 1292v224h189v-224h-189z" />
<glyph unicode="&#xe5;" horiz-adv-x="1069" d="M115 332q0 146 95.5 225.5t248.5 79.5h299v102q0 111 -58.5 157t-162.5 46q-97 0 -160.5 -48t-67.5 -151h-153q3 91 39.5 162t93 110.5t119.5 59t127 19.5q57 0 110 -11t102.5 -37.5t85.5 -66t58 -99.5t22 -135v-745h-155v102q-35 -53 -115 -86.5t-170 -33.5 q-68 0 -130.5 20.5t-114 61.5t-82.5 110t-31 158zM268 332q0 -197 230 -197q103 0 181.5 63.5t78.5 168.5v125h-295q-195 0 -195 -160zM315 1417q0 91 64 155t153 64q93 0 157.5 -63.5t64.5 -155.5q0 -89 -65 -154t-157 -65q-89 0 -153 65.5t-64 153.5zM426 1417 q0 -43 31.5 -74.5t74.5 -31.5q44 0 77.5 31.5t33.5 74.5q0 44 -33.5 76.5t-77.5 32.5q-43 0 -74.5 -32.5t-31.5 -76.5z" />
<glyph unicode="&#xe6;" horiz-adv-x="1695" d="M115 332q0 146 96 226.5t248 80.5h301v102q0 111 -59.5 156t-165.5 45q-42 0 -78.5 -10t-69 -31.5t-52.5 -62t-22 -95.5h-155q2 75 27 136t64 100t89 66t99 38t98 11q92 0 180.5 -42.5t128.5 -111.5q38 65 125.5 109.5t187.5 44.5q182 0 288.5 -104t106.5 -283v-218h-637 v-120q0 -44 10.5 -82t35.5 -74t75 -57t121 -21q103 0 165.5 56.5t72.5 160.5h155q-12 -170 -118 -270t-275 -100q-99 0 -195 53t-131 129q-39 -79 -142 -130.5t-216 -51.5q-70 0 -133 20.5t-114 61.5t-81 110t-30 158zM270 332q0 -108 60.5 -152.5t165.5 -44.5q124 0 194 71 t70 159v129h-295q-195 0 -195 -162zM915 639h482v68q0 36 -6 67t-22 62.5t-42 54t-69.5 37t-100.5 14.5q-111 0 -176.5 -59t-65.5 -164v-80z" />
<glyph unicode="&#xe7;" horiz-adv-x="1050" d="M143 369v338q0 176 111.5 281.5t292.5 105.5q174 0 281.5 -100.5t117.5 -274.5h-155q-3 43 -17 80t-41.5 70.5t-75 53t-110.5 19.5q-116 0 -182 -61.5t-66 -173.5v-338q0 -44 11.5 -82.5t37.5 -74.5t77 -57.5t122 -21.5q105 0 169.5 57.5t74.5 161.5h155 q-13 -170 -121.5 -271t-277.5 -101q-184 0 -294 105t-110 284zM350 -412l154 326h145l-127 -326h-172z" />
<glyph unicode="&#xe8;" horiz-adv-x="1081" d="M143 369v338q0 176 111.5 281.5t292.5 105.5q183 0 292 -104t109 -283v-218h-649v-120q0 -44 11.5 -82.5t37.5 -74.5t77 -57.5t122 -21.5q105 0 169.5 57.5t74.5 161.5h155q-13 -170 -121.5 -271t-277.5 -101q-184 0 -294 105t-110 284zM299 641h494v66q0 35 -6.5 66.5 t-23.5 63t-44 54.5t-71 37t-101 14q-116 0 -182 -61.5t-66 -173.5v-66zM330 1550h180l164 -333h-146z" />
<glyph unicode="&#xe9;" horiz-adv-x="1081" d="M143 369v338q0 176 111.5 281.5t292.5 105.5q183 0 292 -104t109 -283v-218h-649v-120q0 -44 11.5 -82.5t37.5 -74.5t77 -57.5t122 -21.5q105 0 169.5 57.5t74.5 161.5h155q-13 -170 -121.5 -271t-277.5 -101q-184 0 -294 105t-110 284zM299 641h494v66q0 35 -6.5 66.5 t-23.5 63t-44 54.5t-71 37t-101 14q-116 0 -182 -61.5t-66 -173.5v-66zM418 1217l162 333h180l-201 -333h-141z" />
<glyph unicode="&#xea;" horiz-adv-x="1081" d="M143 369v338q0 176 111.5 281.5t292.5 105.5q183 0 292 -104t109 -283v-218h-649v-120q0 -44 11.5 -82.5t37.5 -74.5t77 -57.5t122 -21.5q105 0 169.5 57.5t74.5 161.5h155q-13 -170 -121.5 -271t-277.5 -101q-184 0 -294 105t-110 284zM254 1217l233 290h131l232 -290 h-154l-143 149l-143 -149h-156zM299 641h494v66q0 35 -6.5 66.5t-23.5 63t-44 54.5t-71 37t-101 14q-116 0 -182 -61.5t-66 -173.5v-66z" />
<glyph unicode="&#xeb;" horiz-adv-x="1081" d="M143 369v338q0 176 111.5 281.5t292.5 105.5q183 0 292 -104t109 -283v-218h-649v-120q0 -44 11.5 -82.5t37.5 -74.5t77 -57.5t122 -21.5q105 0 169.5 57.5t74.5 161.5h155q-13 -170 -121.5 -271t-277.5 -101q-184 0 -294 105t-110 284zM244 1292v224h188v-224h-188z M299 641h494v66q0 35 -6.5 66.5t-23.5 63t-44 54.5t-71 37t-101 14q-116 0 -182 -61.5t-66 -173.5v-66zM664 1292v224h188v-224h-188z" />
<glyph unicode="&#xec;" horiz-adv-x="481" d="M-27 1550h181l163 -333h-145zM164 0v1077h153v-1077h-153z" />
<glyph unicode="&#xed;" horiz-adv-x="483" d="M166 0v1077h153v-1077h-153zM172 1217l162 333h180l-201 -333h-141z" />
<glyph unicode="&#xee;" horiz-adv-x="483" d="M-53 1217l233 290h131l232 -290h-154l-143 149l-144 -149h-155zM164 0v1077h153v-1077h-153z" />
<glyph unicode="&#xef;" horiz-adv-x="481" d="M-63 1292v224h188v-224h-188zM164 0v1077h153v-1077h-153zM356 1292v224h189v-224h-189z" />
<glyph unicode="&#xf0;" horiz-adv-x="1124" d="M156 362v168q0 42 10.5 88.5t39.5 100.5t72 96.5t115 71t162 28.5q75 0 144.5 -25t117.5 -67v262q0 39 -6 66l-156 -160l-98 96l184 185q-67 55 -204 55v148q190 0 305 -103l162 164l96 -96l-176 -176q41 -76 41 -174v-732q0 -41 -11 -87t-40 -99t-72 -94t-116 -68.5 t-163 -27.5q-92 0 -165.5 28t-117.5 70t-73 95.5t-40 99.5t-11 87zM303 369q0 -59 19.5 -104.5t47.5 -70.5t65.5 -41t68 -21t59.5 -5q30 0 60 5t66.5 21t63.5 41t45.5 70.5t18.5 104.5v159q0 59 -18.5 104.5t-45.5 70.5t-63.5 41t-66.5 21t-60 5q-29 0 -59.5 -5t-68 -21 t-65.5 -41t-47.5 -70.5t-19.5 -104.5v-159z" />
<glyph unicode="&#xf1;" horiz-adv-x="1110" d="M164 0v1075h153v-98q38 54 113 85.5t150 31.5q181 0 277.5 -102t96.5 -285v-707h-153v707q0 37 -3.5 65.5t-17 62t-36.5 55.5t-65 37t-99 15q-110 0 -186.5 -65t-76.5 -166v-711h-153zM225 1389q71 70 118 93t91 23q45 0 125 -44t125 -44t115 68l96 -94 q-71 -68 -119 -91.5t-90 -23.5q-46 0 -125 44t-125 44q-22 0 -45 -12.5t-69 -55.5z" />
<glyph unicode="&#xf2;" horiz-adv-x="1091" d="M143 369v338q0 176 111.5 281.5t292.5 105.5q183 0 292 -104t109 -283v-338q0 -176 -111 -282.5t-290 -106.5q-184 0 -294 105t-110 284zM299 369q0 -44 11.5 -82.5t37.5 -74.5t77 -57.5t122 -21.5q114 0 180 63t66 173v338q0 35 -6.5 66.5t-23.5 63t-44 54.5t-71 37 t-101 14q-116 0 -182 -61.5t-66 -173.5v-338zM332 1550h180l164 -333h-146z" />
<glyph unicode="&#xf3;" horiz-adv-x="1091" d="M143 369v338q0 176 111.5 281.5t292.5 105.5q183 0 292 -104t109 -283v-338q0 -176 -111 -282.5t-290 -106.5q-184 0 -294 105t-110 284zM299 369q0 -44 11.5 -82.5t37.5 -74.5t77 -57.5t122 -21.5q114 0 180 63t66 173v338q0 35 -6.5 66.5t-23.5 63t-44 54.5t-71 37 t-101 14q-116 0 -182 -61.5t-66 -173.5v-338zM422 1217l162 333h180l-201 -333h-141z" />
<glyph unicode="&#xf4;" horiz-adv-x="1091" d="M143 369v338q0 176 111.5 281.5t292.5 105.5q183 0 292 -104t109 -283v-338q0 -176 -111 -282.5t-290 -106.5q-184 0 -294 105t-110 284zM242 1217l233 290h131l232 -290h-154l-143 149l-144 -149h-155zM299 369q0 -44 11.5 -82.5t37.5 -74.5t77 -57.5t122 -21.5 q114 0 180 63t66 173v338q0 35 -6.5 66.5t-23.5 63t-44 54.5t-71 37t-101 14q-116 0 -182 -61.5t-66 -173.5v-338z" />
<glyph unicode="&#xf5;" horiz-adv-x="1091" d="M143 369v338q0 176 111.5 281.5t292.5 105.5q183 0 292 -104t109 -283v-338q0 -176 -111 -282.5t-290 -106.5q-184 0 -294 105t-110 284zM213 1391q71 70 118 93t91 23q45 0 125 -44t125 -44q44 0 114 68l97 -94q-71 -68 -119 -91.5t-90 -23.5q-46 0 -125 44t-125 44 q-23 0 -46 -12.5t-69 -55.5zM299 369q0 -44 11.5 -82.5t37.5 -74.5t77 -57.5t122 -21.5q114 0 180 63t66 173v338q0 35 -6.5 66.5t-23.5 63t-44 54.5t-71 37t-101 14q-116 0 -182 -61.5t-66 -173.5v-338z" />
<glyph unicode="&#xf6;" horiz-adv-x="1091" d="M143 369v338q0 176 111.5 281.5t292.5 105.5q183 0 292 -104t109 -283v-338q0 -176 -111 -282.5t-290 -106.5q-184 0 -294 105t-110 284zM244 1292v224h188v-224h-188zM299 369q0 -44 11.5 -82.5t37.5 -74.5t77 -57.5t122 -21.5q114 0 180 63t66 173v338q0 35 -6.5 66.5 t-23.5 63t-44 54.5t-71 37t-101 14q-116 0 -182 -61.5t-66 -173.5v-338zM664 1292v224h188v-224h-188z" />
<glyph unicode="&#xf7;" horiz-adv-x="1099" d="M158 367v145h770v-145h-770zM430 0v225h223v-225h-223zM430 649v225h223v-225h-223z" />
<glyph unicode="&#xf8;" horiz-adv-x="1091" d="M143 369v338q0 176 111.5 281.5t292.5 105.5q32 0 106 -9q72 219 84 258h156l-105 -317q160 -106 160 -319v-338q0 -176 -111 -282.5t-290 -106.5q-57 0 -98 8l-97 -305h-157l116 354q-168 102 -168 332zM299 369q0 -43 16 -93t45 -83q42 127 123 372.5t123 372.5 q-20 4 -59 4q-116 0 -182 -61.5t-66 -173.5v-338zM498 135q16 -2 49 -2q114 0 180 63t66 173v338q0 111 -54 165q-41 -127 -120.5 -368.5t-120.5 -368.5z" />
<glyph unicode="&#xf9;" horiz-adv-x="1116" d="M156 369v708h155v-708q0 -44 10.5 -82t35.5 -74t75 -57t121 -21q108 0 176 60.5t68 162.5v719h155v-1077h-155v84q-36 -46 -104.5 -74t-139.5 -28q-183 0 -290 104.5t-107 282.5zM350 1550h180l164 -333h-145z" />
<glyph unicode="&#xfa;" horiz-adv-x="1116" d="M156 369v708h155v-708q0 -44 10.5 -82t35.5 -74t75 -57t121 -21q108 0 176 60.5t68 162.5v719h155v-1077h-155v84q-36 -46 -104.5 -74t-139.5 -28q-183 0 -290 104.5t-107 282.5zM403 1217l162 333h180l-200 -333h-142z" />
<glyph unicode="&#xfb;" horiz-adv-x="1116" d="M156 369v708h155v-708q0 -44 10.5 -82t35.5 -74t75 -57t121 -21q108 0 176 60.5t68 162.5v719h155v-1077h-155v84q-36 -46 -104.5 -74t-139.5 -28q-183 0 -290 104.5t-107 282.5zM250 1217l233 290h131l232 -290h-154l-143 149l-143 -149h-156z" />
<glyph unicode="&#xfc;" horiz-adv-x="1116" d="M156 369v708h155v-708q0 -44 10.5 -82t35.5 -74t75 -57t121 -21q108 0 176 60.5t68 162.5v719h155v-1077h-155v84q-36 -46 -104.5 -74t-139.5 -28q-183 0 -290 104.5t-107 282.5zM244 1292v224h188v-224h-188zM664 1292v224h188v-224h-188z" />
<glyph unicode="&#xfd;" horiz-adv-x="921" d="M43 1077h162l254 -930h12l246 930h162l-342 -1282q-22 -83 -52 -135t-74 -78.5t-90.5 -35.5t-115.5 -9h-74v154h98q63 0 98.5 23t53.5 87l53 199h-90zM340 1214l162 334h180l-201 -334h-141z" />
<glyph unicode="&#xfe;" horiz-adv-x="1095" d="M164 -463v1901h153v-451q35 47 103.5 77t138.5 30q182 0 287.5 -103.5t105.5 -283.5v-338q0 -177 -107 -283t-286 -106q-68 0 -139 30t-103 74v-547h-153zM317 369q0 -45 10 -82.5t35 -74.5t75 -58t122 -21q112 0 176 63t64 173v338q0 36 -6 67t-22 62.5t-42 54t-69.5 37 t-100.5 14.5q-116 0 -179 -61.5t-63 -173.5v-338z" />
<glyph unicode="&#xff;" horiz-adv-x="921" d="M43 1077h162l254 -930h12l246 930h162l-342 -1282q-22 -83 -52 -135t-74 -78.5t-90.5 -35.5t-115.5 -9h-74v154h98q63 0 98.5 23t53.5 87l53 199h-90zM170 1292v224h188v-224h-188zM590 1292v224h188v-224h-188z" />
<glyph unicode="&#x152;" horiz-adv-x="1703" d="M143 375v712q0 42 11 88.5t41 101t74.5 97t119 71t168.5 28.5q153 0 256 -76v63h789v-155h-633v-455h585v-156h-585v-540h633v-154h-789v57q-106 -75 -258 -75q-76 0 -140.5 20t-108 53.5t-76.5 74.5t-51.5 86t-27 84.5t-8.5 74.5zM301 375q0 -59 19 -104t47 -69.5 t65 -40t66.5 -20t58.5 -4.5t57.5 4t65 18.5t64 37t47.5 64.5t22 97v725q0 58 -19 102.5t-46.5 69t-64.5 40t-66.5 20t-59.5 4.5q-29 0 -58.5 -4.5t-66.5 -20t-65 -39.5t-47 -69t-19 -103v-708z" />
<glyph unicode="&#x153;" horiz-adv-x="1716" d="M143 369v338q0 177 108 282t290 105q209 0 317 -140q115 140 320 140q182 0 288.5 -104t106.5 -283v-218h-637v-137q1 -42 12.5 -78t37.5 -69t75 -52.5t117 -19.5q103 0 164.5 57.5t72.5 161.5h156q-12 -170 -118 -271t-275 -101q-221 0 -322 139q-101 -139 -315 -139 q-184 0 -291 104.5t-107 284.5zM297 369q0 -35 6 -65.5t22.5 -63t42.5 -55.5t70.5 -37.5t102.5 -14.5q110 0 172 59.5t67 165.5v365q0 91 -56.5 155t-182.5 64q-116 0 -180 -61.5t-64 -173.5v-338zM936 639h481v68q0 45 -10 83.5t-35 74.5t-74.5 56.5t-119.5 20.5 q-111 0 -176.5 -59t-65.5 -164v-80z" />
<glyph unicode="&#x178;" horiz-adv-x="1032" d="M53 1460h170l293 -733l293 733h170l-385 -934v-526h-158v530zM215 1624v223h188v-223h-188zM635 1624v223h188v-223h-188z" />
<glyph unicode="&#x2c6;" horiz-adv-x="923" d="M164 1182l233 291h131l232 -291h-154l-143 149l-144 -149h-155z" />
<glyph unicode="&#x2dc;" horiz-adv-x="997" d="M164 1300q71 70 118.5 93.5t90.5 23.5q45 0 125 -44t125 -44q44 0 114 68l97 -94q-71 -68 -119 -91.5t-90 -23.5q-46 0 -125 44t-125 44q-23 0 -46 -12.5t-69 -55.5z" />
<glyph unicode="&#x2000;" horiz-adv-x="995" />
<glyph unicode="&#x2001;" horiz-adv-x="1991" />
<glyph unicode="&#x2002;" horiz-adv-x="995" />
<glyph unicode="&#x2003;" horiz-adv-x="1991" />
<glyph unicode="&#x2004;" horiz-adv-x="663" />
<glyph unicode="&#x2005;" horiz-adv-x="497" />
<glyph unicode="&#x2006;" horiz-adv-x="331" />
<glyph unicode="&#x2007;" horiz-adv-x="331" />
<glyph unicode="&#x2008;" horiz-adv-x="248" />
<glyph unicode="&#x2009;" horiz-adv-x="398" />
<glyph unicode="&#x200a;" horiz-adv-x="110" />
<glyph unicode="&#x2010;" horiz-adv-x="935" d="M164 506v145h608v-145h-608z" />
<glyph unicode="&#x2011;" horiz-adv-x="935" d="M164 506v145h608v-145h-608z" />
<glyph unicode="&#x2012;" horiz-adv-x="935" d="M164 506v145h608v-145h-608z" />
<glyph unicode="&#x2013;" horiz-adv-x="1196" d="M164 506v145h868v-145h-868z" />
<glyph unicode="&#x2014;" horiz-adv-x="1695" d="M164 506v145h1368v-145h-1368z" />
<glyph unicode="&#x2018;" horiz-adv-x="491" d="M61 1114l283 453h105l-168 -453h-220z" />
<glyph unicode="&#x2019;" horiz-adv-x="491" d="M61 1114l168 453h220l-285 -453h-103z" />
<glyph unicode="&#x201a;" horiz-adv-x="495" d="M61 -246l170 463h234l-291 -463h-113z" />
<glyph unicode="&#x201c;" horiz-adv-x="788" d="M61 1178l291 464h113l-172 -464h-232zM322 1178l292 464h113l-172 -464h-233z" />
<glyph unicode="&#x201d;" horiz-adv-x="788" d="M61 1178l170 464h234l-291 -464h-113zM322 1178l172 464h233l-291 -464h-114z" />
<glyph unicode="&#x201e;" horiz-adv-x="788" d="M61 -246l170 463h234l-291 -463h-113zM322 -246l172 463h233l-291 -463h-114z" />
<glyph unicode="&#x2022;" horiz-adv-x="778" d="M164 715q0 94 65.5 160.5t159.5 66.5t159.5 -66.5t65.5 -160.5t-65.5 -160t-159.5 -66t-159.5 66t-65.5 160z" />
<glyph unicode="&#x2026;" horiz-adv-x="1366" d="M156 0v217h196v-217h-196zM586 0v217h194v-217h-194zM1016 0v217h194v-217h-194z" />
<glyph unicode="&#x202f;" horiz-adv-x="398" />
<glyph unicode="&#x2039;" horiz-adv-x="612" d="M61 541l408 409v-202l-205 -207l205 -207v-201z" />
<glyph unicode="&#x203a;" horiz-adv-x="610" d="M143 133v201l207 207l-207 207v202l406 -409z" />
<glyph unicode="&#x205f;" horiz-adv-x="497" />
<glyph unicode="&#x20ac;" horiz-adv-x="1124" d="M94 516v148h166v145h-166v147h166v131q0 35 6.5 72.5t21.5 83t45 85t71 73t105.5 53t143.5 19.5q88 0 158 -28.5t110.5 -70.5t68 -98t38 -104t12.5 -95h-155q-2 60 -19.5 105.5t-41.5 70.5t-56.5 40.5t-59.5 20.5t-55 5q-29 0 -57 -5t-61.5 -20.5t-58 -40t-41.5 -69 t-17 -103.5v-125h385v-147h-385v-145h385v-148h-385v-139q0 -59 17 -104t41.5 -70t58 -40.5t61.5 -20.5t57 -5q27 0 54 5t59 20.5t56.5 40.5t42 69t20.5 101h155q-3 -51 -14 -100t-39.5 -103.5t-70 -94.5t-112 -66.5t-159.5 -26.5q-92 0 -164 29t-112 71.5t-66 99t-34.5 103 t-8.5 90.5v141h-166z" />
<glyph unicode="&#x2122;" horiz-adv-x="1427" d="M164 1303v135h514v-135h-191v-656h-135v656h-188zM709 647v791h180l98 -353l94 353h183v-791h-134v496l-92 -297h-104l-92 295v-494h-133z" />
<glyph unicode="&#x25fc;" horiz-adv-x="1075" d="M0 0v1075h1075v-1075h-1075z" />
<glyph unicode="&#xfb01;" horiz-adv-x="1198" d="M41 922v153h184v80q0 144 72.5 224.5t216.5 80.5h96v-151h-114q-46 0 -80.5 -30.5t-34.5 -98.5v-105h637v-1075h-154v922h-483v-922h-156v922h-184zM848 1253v222h186v-222h-186z" />
<glyph unicode="&#xfb02;" horiz-adv-x="1196" d="M41 922v153h186v80q0 144 72.5 224.5t216.5 80.5h96v-151h-114q-46 0 -81.5 -30.5t-35.5 -98.5v-105h465v385h153v-1190q0 -63 32 -90.5t83 -27.5h49v-152h-59q-115 0 -186.5 68.5t-71.5 210.5v643h-465v-922h-154v922h-186z" />
</font>
</defs>
</svg>
